%FSLAX44Y44*%
%MOMM*%
G71*
G01*
G75*
G04 Layer_Physical_Order=1*
G04 Layer_Color=255*
%ADD10R,1.1000X1.7000*%
%ADD11R,1.7000X1.1000*%
%ADD12R,0.6000X1.3000*%
G04:AMPARAMS|DCode=13|XSize=1.25mm|YSize=1.84mm|CornerRadius=0.3125mm|HoleSize=0mm|Usage=FLASHONLY|Rotation=180.000|XOffset=0mm|YOffset=0mm|HoleType=Round|Shape=RoundedRectangle|*
%AMROUNDEDRECTD13*
21,1,1.2500,1.2150,0,0,180.0*
21,1,0.6250,1.8400,0,0,180.0*
1,1,0.6250,-0.3125,0.6075*
1,1,0.6250,0.3125,0.6075*
1,1,0.6250,0.3125,-0.6075*
1,1,0.6250,-0.3125,-0.6075*
%
%ADD13ROUNDEDRECTD13*%
G04:AMPARAMS|DCode=14|XSize=1.25mm|YSize=1.84mm|CornerRadius=0.3125mm|HoleSize=0mm|Usage=FLASHONLY|Rotation=90.000|XOffset=0mm|YOffset=0mm|HoleType=Round|Shape=RoundedRectangle|*
%AMROUNDEDRECTD14*
21,1,1.2500,1.2150,0,0,90.0*
21,1,0.6250,1.8400,0,0,90.0*
1,1,0.6250,0.6075,0.3125*
1,1,0.6250,0.6075,-0.3125*
1,1,0.6250,-0.6075,-0.3125*
1,1,0.6250,-0.6075,0.3125*
%
%ADD14ROUNDEDRECTD14*%
G04:AMPARAMS|DCode=15|XSize=1mm|YSize=1.4mm|CornerRadius=0.25mm|HoleSize=0mm|Usage=FLASHONLY|Rotation=270.000|XOffset=0mm|YOffset=0mm|HoleType=Round|Shape=RoundedRectangle|*
%AMROUNDEDRECTD15*
21,1,1.0000,0.9000,0,0,270.0*
21,1,0.5000,1.4000,0,0,270.0*
1,1,0.5000,-0.4500,-0.2500*
1,1,0.5000,-0.4500,0.2500*
1,1,0.5000,0.4500,0.2500*
1,1,0.5000,0.4500,-0.2500*
%
%ADD15ROUNDEDRECTD15*%
G04:AMPARAMS|DCode=16|XSize=1mm|YSize=1.4mm|CornerRadius=0.25mm|HoleSize=0mm|Usage=FLASHONLY|Rotation=180.000|XOffset=0mm|YOffset=0mm|HoleType=Round|Shape=RoundedRectangle|*
%AMROUNDEDRECTD16*
21,1,1.0000,0.9000,0,0,180.0*
21,1,0.5000,1.4000,0,0,180.0*
1,1,0.5000,-0.2500,0.4500*
1,1,0.5000,0.2500,0.4500*
1,1,0.5000,0.2500,-0.4500*
1,1,0.5000,-0.2500,-0.4500*
%
%ADD16ROUNDEDRECTD16*%
%ADD17R,2.3000X2.3000*%
G04:AMPARAMS|DCode=18|XSize=1.34mm|YSize=1.68mm|CornerRadius=0.335mm|HoleSize=0mm|Usage=FLASHONLY|Rotation=180.000|XOffset=0mm|YOffset=0mm|HoleType=Round|Shape=RoundedRectangle|*
%AMROUNDEDRECTD18*
21,1,1.3400,1.0100,0,0,180.0*
21,1,0.6700,1.6800,0,0,180.0*
1,1,0.6700,-0.3350,0.5050*
1,1,0.6700,0.3350,0.5050*
1,1,0.6700,0.3350,-0.5050*
1,1,0.6700,-0.3350,-0.5050*
%
%ADD18ROUNDEDRECTD18*%
%ADD19R,1.3000X0.6000*%
%ADD20C,0.9000*%
%ADD21C,0.5000*%
%ADD22C,0.4000*%
%ADD23C,0.6000*%
%ADD24C,0.8000*%
%ADD25C,1.5240*%
%ADD26C,1.6000*%
G04:AMPARAMS|DCode=27|XSize=1.6mm|YSize=1.6mm|CornerRadius=0.4mm|HoleSize=0mm|Usage=FLASHONLY|Rotation=90.000|XOffset=0mm|YOffset=0mm|HoleType=Round|Shape=RoundedRectangle|*
%AMROUNDEDRECTD27*
21,1,1.6000,0.8000,0,0,90.0*
21,1,0.8000,1.6000,0,0,90.0*
1,1,0.8000,0.4000,0.4000*
1,1,0.8000,0.4000,-0.4000*
1,1,0.8000,-0.4000,-0.4000*
1,1,0.8000,-0.4000,0.4000*
%
%ADD27ROUNDEDRECTD27*%
%ADD28O,1.5000X1.8000*%
%ADD29R,1.5000X1.8000*%
%ADD30R,1.5000X2.0000*%
%ADD31O,1.5000X2.0000*%
%ADD32R,1.5000X1.5000*%
%ADD33C,1.5000*%
%ADD34R,1.6000X1.6000*%
%ADD35C,1.8000*%
%ADD36C,2.5000*%
%ADD37R,1.2000X1.2000*%
%ADD38C,1.2000*%
%ADD39C,2.0000*%
G36*
X1744306Y592537D02*
X1744386Y592527D01*
X1744476Y592517D01*
X1744576Y592497D01*
X1744686Y592477D01*
X1744925Y592397D01*
X1745055Y592357D01*
X1745185Y592297D01*
X1745314Y592227D01*
X1745444Y592147D01*
X1745564Y592057D01*
X1745684Y591948D01*
X1745694Y591938D01*
X1745714Y591918D01*
X1745744Y591888D01*
X1745784Y591838D01*
X1745834Y591788D01*
X1745883Y591718D01*
X1745943Y591638D01*
X1746003Y591548D01*
X1746113Y591339D01*
X1746213Y591089D01*
X1746253Y590959D01*
X1746283Y590820D01*
X1746303Y590670D01*
X1746313Y590520D01*
Y590500D01*
Y590440D01*
X1746303Y590350D01*
X1746283Y590231D01*
X1746253Y590091D01*
X1746203Y589931D01*
X1746143Y589752D01*
X1746063Y589572D01*
X1743707Y585938D01*
X1745903D01*
X1745943Y585928D01*
X1745983Y585918D01*
X1746033Y585898D01*
X1746093Y585878D01*
X1746153Y585839D01*
X1746203Y585789D01*
X1746213Y585779D01*
X1746223Y585769D01*
X1746253Y585739D01*
X1746283Y585699D01*
X1746333Y585599D01*
X1746343Y585539D01*
X1746353Y585469D01*
Y585459D01*
Y585449D01*
X1746343Y585419D01*
Y585379D01*
X1746303Y585280D01*
X1746273Y585220D01*
X1746233Y585160D01*
X1746223Y585150D01*
X1746213Y585140D01*
X1746183Y585110D01*
X1746143Y585080D01*
X1746093Y585050D01*
X1746033Y585030D01*
X1745953Y585010D01*
X1745874Y585000D01*
X1742919D01*
X1742859Y585010D01*
X1742779Y585020D01*
X1742689Y585050D01*
X1742589Y585100D01*
X1742509Y585170D01*
X1742450Y585270D01*
X1742440Y585329D01*
X1742430Y585399D01*
Y585409D01*
Y585429D01*
X1742440Y585459D01*
Y585499D01*
X1742480Y585599D01*
X1742500Y585669D01*
X1742539Y585739D01*
X1745245Y590051D01*
X1745255Y590061D01*
X1745265Y590091D01*
X1745284Y590141D01*
X1745305Y590211D01*
X1745325Y590281D01*
X1745344Y590360D01*
X1745364Y590450D01*
Y590540D01*
Y590550D01*
Y590560D01*
Y590610D01*
X1745354Y590690D01*
X1745334Y590790D01*
X1745294Y590900D01*
X1745245Y591019D01*
X1745175Y591139D01*
X1745085Y591249D01*
X1745075Y591259D01*
X1745045Y591279D01*
X1745005Y591309D01*
X1744945Y591349D01*
X1744885Y591399D01*
X1744805Y591438D01*
X1744646Y591518D01*
X1744636D01*
X1744606Y591528D01*
X1744566Y591548D01*
X1744516Y591568D01*
X1744446Y591578D01*
X1744376Y591598D01*
X1744207Y591608D01*
X1744167D01*
X1744117Y591598D01*
X1744057D01*
X1743907Y591558D01*
X1743827Y591528D01*
X1743747Y591488D01*
X1743737Y591478D01*
X1743707Y591459D01*
X1743657Y591419D01*
X1743598Y591379D01*
X1743538Y591319D01*
X1743468Y591249D01*
X1743398Y591169D01*
X1743338Y591079D01*
X1743328Y591069D01*
X1743298Y591029D01*
X1743238Y590979D01*
X1743198Y590949D01*
X1743148Y590910D01*
X1742959Y590869D01*
X1742929D01*
X1742889Y590880D01*
X1742839Y590890D01*
X1742729Y590929D01*
X1742669Y590959D01*
X1742609Y590999D01*
X1742599Y591009D01*
X1742589Y591019D01*
X1742559Y591049D01*
X1742539Y591089D01*
X1742480Y591199D01*
X1742470Y591269D01*
X1742460Y591339D01*
Y591359D01*
X1742470Y591399D01*
X1742489Y591478D01*
X1742520Y591578D01*
Y591588D01*
X1742529Y591598D01*
X1742569Y591648D01*
X1742629Y591728D01*
X1742719Y591828D01*
X1742819Y591938D01*
X1742949Y592057D01*
X1743098Y592167D01*
X1743258Y592277D01*
X1743268Y592287D01*
X1743298Y592297D01*
X1743338Y592317D01*
X1743398Y592347D01*
X1743458Y592377D01*
X1743538Y592417D01*
X1743697Y592467D01*
X1743707D01*
X1743717Y592477D01*
X1743777Y592487D01*
X1743847Y592507D01*
X1743937Y592527D01*
X1743957D01*
X1744007Y592537D01*
X1744077Y592547D01*
X1744246D01*
X1744306Y592537D01*
D02*
G37*
G36*
X1655717Y613946D02*
X1655942D01*
X1656167Y613921D01*
X1656442Y613871D01*
X1656742Y613821D01*
X1657367Y613697D01*
X1658017Y613497D01*
X1658616Y613197D01*
X1658916Y613022D01*
X1659166Y612822D01*
X1659191Y612797D01*
X1659216Y612772D01*
X1659291Y612697D01*
X1659366Y612622D01*
X1659591Y612372D01*
X1659816Y612022D01*
X1660066Y611572D01*
X1660291Y611072D01*
X1660466Y610472D01*
X1660516Y610147D01*
X1660541Y609798D01*
X1657767Y609673D01*
Y609723D01*
X1657742Y609847D01*
X1657692Y610022D01*
X1657617Y610247D01*
X1657492Y610497D01*
X1657367Y610747D01*
X1657192Y610972D01*
X1656992Y611172D01*
X1656967Y611197D01*
X1656892Y611247D01*
X1656742Y611322D01*
X1656567Y611422D01*
X1656317Y611497D01*
X1656017Y611572D01*
X1655667Y611622D01*
X1655267Y611647D01*
X1655067D01*
X1654842Y611622D01*
X1654567Y611597D01*
X1654267Y611522D01*
X1653943Y611447D01*
X1653643Y611322D01*
X1653368Y611172D01*
X1653343Y611147D01*
X1653293Y611122D01*
X1653218Y611047D01*
X1653143Y610947D01*
X1652993Y610672D01*
X1652943Y610522D01*
X1652918Y610322D01*
Y610297D01*
Y610247D01*
X1652943Y610147D01*
X1652968Y610022D01*
X1653018Y609897D01*
X1653093Y609748D01*
X1653193Y609622D01*
X1653343Y609473D01*
X1653368Y609448D01*
X1653468Y609398D01*
X1653618Y609323D01*
X1653868Y609198D01*
X1654018Y609148D01*
X1654193Y609073D01*
X1654393Y608998D01*
X1654642Y608923D01*
X1654892Y608823D01*
X1655192Y608748D01*
X1655517Y608673D01*
X1655867Y608573D01*
X1655892D01*
X1655967Y608548D01*
X1656067Y608523D01*
X1656192Y608498D01*
X1656367Y608448D01*
X1656567Y608398D01*
X1656992Y608273D01*
X1657492Y608123D01*
X1657992Y607948D01*
X1658466Y607773D01*
X1658866Y607573D01*
X1658916Y607548D01*
X1659016Y607473D01*
X1659216Y607373D01*
X1659416Y607223D01*
X1659666Y607023D01*
X1659916Y606773D01*
X1660166Y606498D01*
X1660391Y606173D01*
X1660416Y606123D01*
X1660466Y606023D01*
X1660566Y605824D01*
X1660666Y605574D01*
X1660766Y605249D01*
X1660866Y604899D01*
X1660916Y604474D01*
X1660941Y603999D01*
Y603974D01*
Y603949D01*
Y603799D01*
X1660916Y603574D01*
X1660866Y603274D01*
X1660766Y602949D01*
X1660666Y602574D01*
X1660491Y602174D01*
X1660266Y601774D01*
X1660241Y601725D01*
X1660141Y601600D01*
X1659991Y601425D01*
X1659791Y601200D01*
X1659541Y600950D01*
X1659216Y600700D01*
X1658841Y600450D01*
X1658416Y600250D01*
X1658392D01*
X1658367Y600225D01*
X1658291Y600200D01*
X1658217Y600175D01*
X1657942Y600100D01*
X1657617Y600025D01*
X1657167Y599925D01*
X1656667Y599850D01*
X1656092Y599800D01*
X1655442Y599775D01*
X1655192D01*
X1655017Y599800D01*
X1654792D01*
X1654542Y599850D01*
X1654267Y599875D01*
X1653968Y599925D01*
X1653318Y600075D01*
X1652668Y600275D01*
X1652018Y600575D01*
X1651718Y600750D01*
X1651443Y600950D01*
X1651418Y600975D01*
X1651393Y601000D01*
X1651318Y601075D01*
X1651218Y601175D01*
X1651118Y601300D01*
X1650993Y601450D01*
X1650843Y601625D01*
X1650718Y601850D01*
X1650569Y602075D01*
X1650419Y602349D01*
X1650269Y602624D01*
X1650144Y602949D01*
X1650019Y603274D01*
X1649919Y603649D01*
X1649844Y604049D01*
X1649769Y604474D01*
X1652468Y604724D01*
Y604699D01*
X1652493Y604674D01*
Y604599D01*
X1652518Y604499D01*
X1652593Y604274D01*
X1652693Y603974D01*
X1652818Y603649D01*
X1652993Y603324D01*
X1653218Y602999D01*
X1653468Y602724D01*
X1653493Y602699D01*
X1653618Y602624D01*
X1653768Y602524D01*
X1653993Y602399D01*
X1654292Y602274D01*
X1654617Y602174D01*
X1655017Y602099D01*
X1655467Y602075D01*
X1655692D01*
X1655942Y602099D01*
X1656217Y602149D01*
X1656567Y602224D01*
X1656892Y602324D01*
X1657217Y602449D01*
X1657492Y602649D01*
X1657517Y602674D01*
X1657592Y602749D01*
X1657717Y602874D01*
X1657842Y603024D01*
X1657942Y603224D01*
X1658067Y603449D01*
X1658141Y603699D01*
X1658167Y603974D01*
Y603999D01*
Y604049D01*
X1658141Y604149D01*
Y604274D01*
X1658042Y604524D01*
X1657967Y604674D01*
X1657867Y604799D01*
Y604824D01*
X1657817Y604849D01*
X1657742Y604924D01*
X1657642Y604999D01*
X1657492Y605099D01*
X1657342Y605199D01*
X1657117Y605299D01*
X1656867Y605399D01*
X1656842D01*
X1656767Y605424D01*
X1656617Y605474D01*
X1656417Y605549D01*
X1656117Y605624D01*
X1655742Y605723D01*
X1655517Y605798D01*
X1655267Y605849D01*
X1654967Y605924D01*
X1654667Y605998D01*
X1654642D01*
X1654567Y606023D01*
X1654467Y606048D01*
X1654317Y606098D01*
X1654117Y606148D01*
X1653918Y606223D01*
X1653443Y606373D01*
X1652918Y606573D01*
X1652418Y606798D01*
X1651943Y607073D01*
X1651718Y607198D01*
X1651543Y607348D01*
X1651518Y607373D01*
X1651493Y607398D01*
X1651343Y607548D01*
X1651143Y607798D01*
X1650918Y608123D01*
X1650668Y608523D01*
X1650468Y608998D01*
X1650318Y609548D01*
X1650293Y609823D01*
X1650269Y610122D01*
Y610172D01*
Y610297D01*
X1650293Y610497D01*
X1650343Y610772D01*
X1650419Y611072D01*
X1650518Y611397D01*
X1650668Y611722D01*
X1650868Y612072D01*
X1650893Y612122D01*
X1650968Y612222D01*
X1651118Y612397D01*
X1651318Y612597D01*
X1651543Y612822D01*
X1651843Y613047D01*
X1652168Y613272D01*
X1652568Y613471D01*
X1652593D01*
X1652618Y613497D01*
X1652768Y613546D01*
X1653018Y613621D01*
X1653343Y613722D01*
X1653718Y613821D01*
X1654193Y613896D01*
X1654717Y613946D01*
X1655292Y613971D01*
X1655542D01*
X1655717Y613946D01*
D02*
G37*
G36*
X1721896Y592537D02*
X1721936D01*
X1722046Y592497D01*
X1722106Y592467D01*
X1722166Y592427D01*
X1722176Y592417D01*
X1722186Y592407D01*
X1722216Y592377D01*
X1722246Y592337D01*
X1722296Y592227D01*
X1722305Y592157D01*
X1722316Y592087D01*
X1722296Y591938D01*
X1720079Y585389D01*
Y585379D01*
X1720069Y585369D01*
X1720040Y585309D01*
X1719990Y585220D01*
X1719920Y585120D01*
X1719910Y585110D01*
X1719860Y585090D01*
X1719830Y585070D01*
X1719780Y585050D01*
X1719720Y585030D01*
X1719650Y585000D01*
X1719640D01*
X1719600Y585010D01*
X1719541Y585020D01*
X1719481Y585050D01*
X1719401Y585100D01*
X1719331Y585160D01*
X1719251Y585260D01*
X1719191Y585389D01*
X1716975Y591938D01*
X1716955Y592077D01*
Y592087D01*
Y592107D01*
X1716965Y592137D01*
X1716975Y592177D01*
X1717015Y592277D01*
X1717045Y592327D01*
X1717095Y592387D01*
X1717105Y592397D01*
X1717125Y592417D01*
X1717145Y592437D01*
X1717185Y592467D01*
X1717285Y592527D01*
X1717344Y592537D01*
X1717414Y592547D01*
X1717554Y592537D01*
X1717674Y592507D01*
X1717684D01*
X1717694Y592487D01*
X1717744Y592447D01*
X1717814Y592357D01*
X1717843Y592307D01*
X1717873Y592237D01*
X1719630Y586807D01*
X1721387Y592227D01*
Y592237D01*
X1721397Y592247D01*
X1721437Y592307D01*
X1721487Y592377D01*
X1721567Y592447D01*
X1721577D01*
X1721587Y592467D01*
X1721647Y592497D01*
X1721727Y592527D01*
X1721826Y592547D01*
X1721856D01*
X1721896Y592537D01*
D02*
G37*
G36*
X1730052D02*
X1730132Y592527D01*
X1730221Y592517D01*
X1730321Y592497D01*
X1730431Y592477D01*
X1730671Y592397D01*
X1730800Y592357D01*
X1730930Y592297D01*
X1731060Y592227D01*
X1731190Y592147D01*
X1731310Y592057D01*
X1731429Y591948D01*
X1731439Y591938D01*
X1731459Y591918D01*
X1731489Y591888D01*
X1731529Y591838D01*
X1731579Y591788D01*
X1731629Y591718D01*
X1731689Y591638D01*
X1731749Y591548D01*
X1731859Y591339D01*
X1731958Y591089D01*
X1731998Y590959D01*
X1732028Y590820D01*
X1732048Y590670D01*
X1732058Y590520D01*
Y590500D01*
Y590440D01*
X1732048Y590350D01*
X1732028Y590231D01*
X1731998Y590091D01*
X1731948Y589931D01*
X1731888Y589752D01*
X1731809Y589572D01*
X1729453Y585938D01*
X1731649D01*
X1731689Y585928D01*
X1731729Y585918D01*
X1731779Y585898D01*
X1731839Y585878D01*
X1731898Y585839D01*
X1731948Y585789D01*
X1731958Y585779D01*
X1731968Y585769D01*
X1731998Y585739D01*
X1732028Y585699D01*
X1732078Y585599D01*
X1732088Y585539D01*
X1732098Y585469D01*
Y585459D01*
Y585449D01*
X1732088Y585419D01*
Y585379D01*
X1732048Y585280D01*
X1732018Y585220D01*
X1731978Y585160D01*
X1731968Y585150D01*
X1731958Y585140D01*
X1731928Y585110D01*
X1731888Y585080D01*
X1731839Y585050D01*
X1731779Y585030D01*
X1731699Y585010D01*
X1731619Y585000D01*
X1728664D01*
X1728604Y585010D01*
X1728524Y585020D01*
X1728435Y585050D01*
X1728335Y585100D01*
X1728255Y585170D01*
X1728195Y585270D01*
X1728185Y585329D01*
X1728175Y585399D01*
Y585409D01*
Y585429D01*
X1728185Y585459D01*
Y585499D01*
X1728225Y585599D01*
X1728245Y585669D01*
X1728285Y585739D01*
X1730990Y590051D01*
X1731000Y590061D01*
X1731010Y590091D01*
X1731030Y590141D01*
X1731050Y590211D01*
X1731070Y590281D01*
X1731090Y590360D01*
X1731110Y590450D01*
Y590540D01*
Y590550D01*
Y590560D01*
Y590610D01*
X1731100Y590690D01*
X1731080Y590790D01*
X1731040Y590900D01*
X1730990Y591019D01*
X1730920Y591139D01*
X1730830Y591249D01*
X1730820Y591259D01*
X1730790Y591279D01*
X1730750Y591309D01*
X1730691Y591349D01*
X1730631Y591399D01*
X1730551Y591438D01*
X1730391Y591518D01*
X1730381D01*
X1730351Y591528D01*
X1730311Y591548D01*
X1730261Y591568D01*
X1730191Y591578D01*
X1730122Y591598D01*
X1729952Y591608D01*
X1729912D01*
X1729862Y591598D01*
X1729802D01*
X1729652Y591558D01*
X1729573Y591528D01*
X1729493Y591488D01*
X1729483Y591478D01*
X1729453Y591459D01*
X1729403Y591419D01*
X1729343Y591379D01*
X1729283Y591319D01*
X1729213Y591249D01*
X1729143Y591169D01*
X1729083Y591079D01*
X1729073Y591069D01*
X1729043Y591029D01*
X1728984Y590979D01*
X1728944Y590949D01*
X1728894Y590910D01*
X1728704Y590869D01*
X1728674D01*
X1728634Y590880D01*
X1728584Y590890D01*
X1728474Y590929D01*
X1728415Y590959D01*
X1728355Y590999D01*
X1728345Y591009D01*
X1728335Y591019D01*
X1728305Y591049D01*
X1728285Y591089D01*
X1728225Y591199D01*
X1728215Y591269D01*
X1728205Y591339D01*
Y591359D01*
X1728215Y591399D01*
X1728235Y591478D01*
X1728265Y591578D01*
Y591588D01*
X1728275Y591598D01*
X1728315Y591648D01*
X1728375Y591728D01*
X1728465Y591828D01*
X1728564Y591938D01*
X1728694Y592057D01*
X1728844Y592167D01*
X1729004Y592277D01*
X1729014Y592287D01*
X1729043Y592297D01*
X1729083Y592317D01*
X1729143Y592347D01*
X1729203Y592377D01*
X1729283Y592417D01*
X1729443Y592467D01*
X1729453D01*
X1729463Y592477D01*
X1729523Y592487D01*
X1729592Y592507D01*
X1729682Y592527D01*
X1729702D01*
X1729752Y592537D01*
X1729822Y592547D01*
X1729992D01*
X1730052Y592537D01*
D02*
G37*
G36*
X1735742D02*
X1735802D01*
X1735871Y592517D01*
X1736031Y592487D01*
X1736221Y592427D01*
X1736420Y592337D01*
X1736530Y592277D01*
X1736630Y592217D01*
X1736730Y592137D01*
X1736830Y592047D01*
X1736840Y592037D01*
X1736850Y592028D01*
X1736879Y591997D01*
X1736909Y591958D01*
X1736949Y591908D01*
X1736989Y591848D01*
X1737089Y591708D01*
X1737189Y591528D01*
X1737269Y591319D01*
X1737329Y591089D01*
X1737339Y590959D01*
X1737349Y590830D01*
Y586717D01*
Y586707D01*
Y586687D01*
Y586647D01*
X1737339Y586597D01*
X1737329Y586537D01*
X1737319Y586467D01*
X1737289Y586308D01*
X1737229Y586118D01*
X1737139Y585918D01*
X1737079Y585818D01*
X1737009Y585709D01*
X1736929Y585609D01*
X1736840Y585509D01*
X1736830Y585499D01*
X1736820Y585489D01*
X1736790Y585459D01*
X1736750Y585429D01*
X1736700Y585389D01*
X1736640Y585349D01*
X1736500Y585260D01*
X1736320Y585160D01*
X1736111Y585080D01*
X1735881Y585020D01*
X1735751Y585010D01*
X1735622Y585000D01*
X1735113D01*
X1735063Y585010D01*
X1735003Y585020D01*
X1734933Y585030D01*
X1734773Y585060D01*
X1734574Y585120D01*
X1734374Y585210D01*
X1734274Y585260D01*
X1734164Y585329D01*
X1734065Y585399D01*
X1733965Y585489D01*
X1733955Y585499D01*
X1733945Y585509D01*
X1733915Y585539D01*
X1733885Y585579D01*
X1733845Y585629D01*
X1733805Y585689D01*
X1733715Y585829D01*
X1733615Y586008D01*
X1733535Y586218D01*
X1733476Y586457D01*
X1733466Y586587D01*
X1733456Y586717D01*
Y590830D01*
Y590840D01*
Y590859D01*
Y590900D01*
X1733466Y590939D01*
X1733476Y590999D01*
X1733486Y591069D01*
X1733515Y591229D01*
X1733575Y591419D01*
X1733665Y591618D01*
X1733725Y591718D01*
X1733795Y591818D01*
X1733865Y591918D01*
X1733955Y592018D01*
X1733965Y592028D01*
X1733975Y592037D01*
X1734005Y592067D01*
X1734045Y592097D01*
X1734095Y592137D01*
X1734154Y592187D01*
X1734304Y592287D01*
X1734474Y592377D01*
X1734683Y592467D01*
X1734923Y592527D01*
X1735053Y592537D01*
X1735183Y592547D01*
X1735692D01*
X1735742Y592537D01*
D02*
G37*
G36*
X1740802Y592576D02*
X1740892Y592537D01*
X1740952Y592507D01*
X1741012Y592457D01*
X1741022Y592447D01*
X1741032Y592427D01*
X1741052Y592397D01*
X1741072Y592357D01*
X1741092Y592297D01*
X1741112Y592237D01*
X1741132Y592157D01*
Y592077D01*
Y585469D01*
Y585459D01*
Y585429D01*
X1741122Y585389D01*
X1741112Y585349D01*
X1741082Y585230D01*
X1741042Y585180D01*
X1741002Y585130D01*
X1740992Y585120D01*
X1740972Y585110D01*
X1740942Y585090D01*
X1740902Y585070D01*
X1740793Y585020D01*
X1740723Y585010D01*
X1740653Y585000D01*
X1740623D01*
X1740583Y585010D01*
X1740543Y585020D01*
X1740433Y585050D01*
X1740373Y585080D01*
X1740313Y585120D01*
X1740303Y585130D01*
X1740293Y585140D01*
X1740273Y585170D01*
X1740244Y585210D01*
X1740214Y585260D01*
X1740194Y585319D01*
X1740184Y585389D01*
X1740174Y585469D01*
Y591089D01*
X1739515Y590281D01*
X1739505Y590271D01*
X1739495Y590261D01*
X1739465Y590231D01*
X1739425Y590211D01*
X1739315Y590151D01*
X1739255Y590141D01*
X1739185Y590131D01*
X1739155D01*
X1739126Y590141D01*
X1739086Y590151D01*
X1738986Y590191D01*
X1738926Y590221D01*
X1738856Y590271D01*
X1738846Y590281D01*
X1738836Y590300D01*
X1738806Y590331D01*
X1738786Y590370D01*
X1738726Y590480D01*
X1738716Y590550D01*
X1738706Y590620D01*
Y590630D01*
Y590650D01*
X1738716Y590680D01*
X1738726Y590720D01*
X1738766Y590820D01*
X1738796Y590869D01*
X1738836Y590929D01*
X1740313Y592407D01*
X1740323Y592417D01*
X1740363Y592457D01*
X1740423Y592497D01*
X1740493Y592537D01*
X1740513Y592547D01*
X1740563Y592566D01*
X1740633Y592587D01*
X1740723Y592597D01*
X1740743D01*
X1740802Y592576D01*
D02*
G37*
G36*
X1694382Y613697D02*
X1694857Y613671D01*
X1695382Y613621D01*
X1695907Y613572D01*
X1696407Y613471D01*
X1696632Y613422D01*
X1696832Y613347D01*
X1696882Y613322D01*
X1697007Y613272D01*
X1697182Y613172D01*
X1697406Y613047D01*
X1697656Y612872D01*
X1697931Y612622D01*
X1698181Y612347D01*
X1698431Y612022D01*
X1698456Y611972D01*
X1698531Y611847D01*
X1698631Y611647D01*
X1698731Y611397D01*
X1698831Y611072D01*
X1698931Y610722D01*
X1699006Y610322D01*
X1699031Y609873D01*
Y609847D01*
Y609798D01*
Y609723D01*
X1699006Y609622D01*
X1698981Y609323D01*
X1698906Y608973D01*
X1698806Y608573D01*
X1698631Y608123D01*
X1698406Y607698D01*
X1698106Y607298D01*
X1698056Y607248D01*
X1697931Y607148D01*
X1697731Y606973D01*
X1697431Y606773D01*
X1697057Y606548D01*
X1696582Y606348D01*
X1696032Y606173D01*
X1695407Y606048D01*
X1695457Y606023D01*
X1695557Y605948D01*
X1695732Y605849D01*
X1695932Y605699D01*
X1696157Y605549D01*
X1696407Y605349D01*
X1696657Y605124D01*
X1696882Y604899D01*
X1696907Y604874D01*
X1696982Y604774D01*
X1697132Y604624D01*
X1697307Y604399D01*
X1697531Y604074D01*
X1697806Y603699D01*
X1698131Y603224D01*
X1698481Y602674D01*
X1700156Y600000D01*
X1696832D01*
X1694832Y602974D01*
Y602999D01*
X1694782Y603049D01*
X1694732Y603124D01*
X1694657Y603224D01*
X1694482Y603499D01*
X1694257Y603824D01*
X1694007Y604174D01*
X1693757Y604499D01*
X1693533Y604799D01*
X1693432Y604899D01*
X1693358Y604999D01*
X1693333Y605024D01*
X1693282Y605074D01*
X1693208Y605149D01*
X1693108Y605224D01*
X1692858Y605424D01*
X1692708Y605499D01*
X1692533Y605574D01*
X1692508D01*
X1692458Y605599D01*
X1692333Y605624D01*
X1692183Y605648D01*
X1691983Y605673D01*
X1691758Y605699D01*
X1691458Y605723D01*
X1690558D01*
Y600000D01*
X1687809D01*
Y613722D01*
X1694182D01*
X1694382Y613697D01*
D02*
G37*
G36*
X1689583Y633946D02*
X1689858Y633921D01*
X1690133Y633871D01*
X1690483Y633821D01*
X1690833Y633746D01*
X1691208Y633647D01*
X1691608Y633497D01*
X1692008Y633347D01*
X1692433Y633172D01*
X1692833Y632947D01*
X1693233Y632697D01*
X1693607Y632397D01*
X1693957Y632072D01*
X1693982Y632047D01*
X1694032Y631997D01*
X1694132Y631872D01*
X1694232Y631722D01*
X1694382Y631547D01*
X1694532Y631297D01*
X1694707Y631022D01*
X1694882Y630722D01*
X1695032Y630372D01*
X1695207Y629972D01*
X1695357Y629548D01*
X1695507Y629073D01*
X1695607Y628573D01*
X1695707Y628023D01*
X1695757Y627448D01*
X1695782Y626823D01*
Y626798D01*
Y626673D01*
Y626498D01*
X1695757Y626273D01*
X1695732Y625998D01*
X1695682Y625674D01*
X1695632Y625324D01*
X1695557Y624924D01*
X1695457Y624524D01*
X1695332Y624099D01*
X1695182Y623674D01*
X1695007Y623224D01*
X1694807Y622799D01*
X1694557Y622399D01*
X1694282Y622000D01*
X1693957Y621625D01*
X1693932Y621600D01*
X1693882Y621550D01*
X1693782Y621450D01*
X1693632Y621325D01*
X1693457Y621200D01*
X1693233Y621050D01*
X1692983Y620875D01*
X1692683Y620700D01*
X1692358Y620525D01*
X1691983Y620350D01*
X1691583Y620200D01*
X1691158Y620075D01*
X1690708Y619950D01*
X1690208Y619850D01*
X1689683Y619800D01*
X1689134Y619775D01*
X1689009D01*
X1688834Y619800D01*
X1688634D01*
X1688359Y619825D01*
X1688059Y619875D01*
X1687734Y619925D01*
X1687384Y620000D01*
X1686984Y620100D01*
X1686584Y620225D01*
X1686184Y620375D01*
X1685784Y620550D01*
X1685385Y620775D01*
X1684985Y621025D01*
X1684610Y621300D01*
X1684260Y621625D01*
X1684235Y621650D01*
X1684185Y621725D01*
X1684085Y621824D01*
X1683985Y621974D01*
X1683835Y622150D01*
X1683685Y622399D01*
X1683535Y622674D01*
X1683360Y622974D01*
X1683185Y623324D01*
X1683035Y623699D01*
X1682885Y624124D01*
X1682735Y624599D01*
X1682635Y625074D01*
X1682535Y625624D01*
X1682485Y626173D01*
X1682460Y626773D01*
Y626798D01*
Y626873D01*
Y626973D01*
Y627123D01*
X1682485Y627298D01*
Y627523D01*
X1682535Y627998D01*
X1682610Y628548D01*
X1682735Y629148D01*
X1682885Y629748D01*
X1683085Y630297D01*
X1683110Y630347D01*
X1683160Y630472D01*
X1683260Y630672D01*
X1683410Y630922D01*
X1683585Y631222D01*
X1683810Y631522D01*
X1684060Y631847D01*
X1684335Y632172D01*
X1684385Y632197D01*
X1684485Y632297D01*
X1684660Y632447D01*
X1684860Y632647D01*
X1685135Y632847D01*
X1685435Y633047D01*
X1685784Y633247D01*
X1686134Y633422D01*
X1686159D01*
X1686184Y633447D01*
X1686259Y633472D01*
X1686359Y633497D01*
X1686634Y633596D01*
X1686984Y633697D01*
X1687409Y633797D01*
X1687909Y633896D01*
X1688484Y633946D01*
X1689084Y633971D01*
X1689384D01*
X1689583Y633946D01*
D02*
G37*
G36*
X1676037Y633697D02*
X1676587Y633671D01*
X1677137Y633647D01*
X1677387Y633621D01*
X1677612Y633596D01*
X1677811Y633546D01*
X1677961Y633521D01*
X1677986D01*
X1678011Y633497D01*
X1678161Y633447D01*
X1678386Y633372D01*
X1678661Y633222D01*
X1678961Y633047D01*
X1679311Y632797D01*
X1679636Y632497D01*
X1679936Y632147D01*
X1679961Y632097D01*
X1680061Y631972D01*
X1680186Y631747D01*
X1680336Y631422D01*
X1680486Y631047D01*
X1680611Y630597D01*
X1680711Y630072D01*
X1680736Y629498D01*
Y629473D01*
Y629448D01*
Y629298D01*
X1680711Y629048D01*
X1680686Y628748D01*
X1680636Y628423D01*
X1680536Y628048D01*
X1680436Y627698D01*
X1680286Y627348D01*
X1680261Y627323D01*
X1680211Y627198D01*
X1680111Y627048D01*
X1679961Y626873D01*
X1679811Y626648D01*
X1679611Y626423D01*
X1679361Y626198D01*
X1679111Y625998D01*
X1679086Y625974D01*
X1678986Y625924D01*
X1678861Y625849D01*
X1678661Y625748D01*
X1678461Y625649D01*
X1678211Y625524D01*
X1677961Y625449D01*
X1677686Y625374D01*
X1677637D01*
X1677512Y625349D01*
X1677262Y625324D01*
X1676962Y625274D01*
X1676537Y625249D01*
X1676062Y625199D01*
X1675487Y625174D01*
X1672988D01*
Y620000D01*
X1670238D01*
Y633722D01*
X1675512D01*
X1676037Y633697D01*
D02*
G37*
G36*
X1721975Y631397D02*
X1714552D01*
Y628348D01*
X1721450D01*
Y626049D01*
X1714552D01*
Y622299D01*
X1722225D01*
Y620000D01*
X1711803D01*
Y633722D01*
X1721975D01*
Y631397D01*
D02*
G37*
G36*
X1685185Y611397D02*
X1677762D01*
Y608348D01*
X1684660D01*
Y606048D01*
X1677762D01*
Y602299D01*
X1685435D01*
Y600000D01*
X1675012D01*
Y613722D01*
X1685185D01*
Y611397D01*
D02*
G37*
G36*
X1673213D02*
X1669139D01*
Y600000D01*
X1666364D01*
Y611397D01*
X1662290D01*
Y613722D01*
X1673213D01*
Y611397D01*
D02*
G37*
G36*
X1645895Y633946D02*
X1646170Y633921D01*
X1646445Y633871D01*
X1646794Y633821D01*
X1647144Y633746D01*
X1647519Y633647D01*
X1647919Y633497D01*
X1648319Y633347D01*
X1648744Y633172D01*
X1649144Y632947D01*
X1649544Y632697D01*
X1649919Y632397D01*
X1650269Y632072D01*
X1650293Y632047D01*
X1650343Y631997D01*
X1650444Y631872D01*
X1650544Y631722D01*
X1650693Y631547D01*
X1650843Y631297D01*
X1651018Y631022D01*
X1651193Y630722D01*
X1651343Y630372D01*
X1651518Y629972D01*
X1651668Y629548D01*
X1651818Y629073D01*
X1651918Y628573D01*
X1652018Y628023D01*
X1652068Y627448D01*
X1652093Y626823D01*
Y626798D01*
Y626673D01*
Y626498D01*
X1652068Y626273D01*
X1652043Y625998D01*
X1651993Y625674D01*
X1651943Y625324D01*
X1651868Y624924D01*
X1651768Y624524D01*
X1651643Y624099D01*
X1651493Y623674D01*
X1651318Y623224D01*
X1651118Y622799D01*
X1650868Y622399D01*
X1650593Y622000D01*
X1650269Y621625D01*
X1650244Y621600D01*
X1650193Y621550D01*
X1650094Y621450D01*
X1649944Y621325D01*
X1649769Y621200D01*
X1649544Y621050D01*
X1649294Y620875D01*
X1648994Y620700D01*
X1648669Y620525D01*
X1648294Y620350D01*
X1647894Y620200D01*
X1647469Y620075D01*
X1647019Y619950D01*
X1646519Y619850D01*
X1645995Y619800D01*
X1645445Y619775D01*
X1645320D01*
X1645145Y619800D01*
X1644945D01*
X1644670Y619825D01*
X1644370Y619875D01*
X1644045Y619925D01*
X1643695Y620000D01*
X1643295Y620100D01*
X1642895Y620225D01*
X1642496Y620375D01*
X1642096Y620550D01*
X1641696Y620775D01*
X1641296Y621025D01*
X1640921Y621300D01*
X1640571Y621625D01*
X1640546Y621650D01*
X1640496Y621725D01*
X1640396Y621824D01*
X1640296Y621974D01*
X1640146Y622150D01*
X1639996Y622399D01*
X1639846Y622674D01*
X1639671Y622974D01*
X1639496Y623324D01*
X1639346Y623699D01*
X1639196Y624124D01*
X1639046Y624599D01*
X1638946Y625074D01*
X1638846Y625624D01*
X1638797Y626173D01*
X1638772Y626773D01*
Y626798D01*
Y626873D01*
Y626973D01*
Y627123D01*
X1638797Y627298D01*
Y627523D01*
X1638846Y627998D01*
X1638921Y628548D01*
X1639046Y629148D01*
X1639196Y629748D01*
X1639396Y630297D01*
X1639421Y630347D01*
X1639471Y630472D01*
X1639571Y630672D01*
X1639721Y630922D01*
X1639896Y631222D01*
X1640121Y631522D01*
X1640371Y631847D01*
X1640646Y632172D01*
X1640696Y632197D01*
X1640796Y632297D01*
X1640971Y632447D01*
X1641171Y632647D01*
X1641446Y632847D01*
X1641746Y633047D01*
X1642096Y633247D01*
X1642446Y633422D01*
X1642471D01*
X1642496Y633447D01*
X1642570Y633472D01*
X1642670Y633497D01*
X1642945Y633596D01*
X1643295Y633697D01*
X1643720Y633797D01*
X1644220Y633896D01*
X1644795Y633946D01*
X1645395Y633971D01*
X1645695D01*
X1645895Y633946D01*
D02*
G37*
G36*
X1670977Y592606D02*
X1671037Y592597D01*
X1671097Y592576D01*
X1671167Y592527D01*
X1671247Y592467D01*
X1671306Y592387D01*
X1671366Y592267D01*
X1673572Y585619D01*
X1673602Y585469D01*
Y585459D01*
Y585439D01*
X1673592Y585399D01*
X1673582Y585359D01*
X1673542Y585250D01*
X1673513Y585190D01*
X1673463Y585140D01*
X1673453Y585130D01*
X1673433Y585120D01*
X1673403Y585100D01*
X1673363Y585070D01*
X1673253Y585020D01*
X1673183Y585010D01*
X1673113Y585000D01*
X1673093D01*
X1673053Y585010D01*
X1672984Y585020D01*
X1672904Y585040D01*
X1672884Y585050D01*
X1672864Y585070D01*
X1672834Y585090D01*
X1672804Y585130D01*
X1672764Y585180D01*
X1672714Y585240D01*
X1672674Y585319D01*
X1672175Y586837D01*
X1669669D01*
X1669150Y585299D01*
Y585289D01*
X1669140Y585280D01*
X1669120Y585230D01*
X1669070Y585160D01*
X1668991Y585090D01*
X1668971Y585080D01*
X1668921Y585050D01*
X1668831Y585020D01*
X1668731Y585000D01*
X1668701D01*
X1668661Y585010D01*
X1668611Y585020D01*
X1668501Y585060D01*
X1668452Y585090D01*
X1668392Y585130D01*
X1668382Y585140D01*
X1668372Y585150D01*
X1668342Y585180D01*
X1668312Y585220D01*
X1668282Y585270D01*
X1668262Y585329D01*
X1668242Y585399D01*
X1668232Y585479D01*
X1668262Y585619D01*
X1670488Y592267D01*
X1670498Y592287D01*
X1670508Y592327D01*
X1670548Y592377D01*
X1670588Y592447D01*
X1670648Y592507D01*
X1670728Y592566D01*
X1670817Y592606D01*
X1670927Y592616D01*
X1670937D01*
X1670977Y592606D01*
D02*
G37*
G36*
X1675469Y585928D02*
X1675509Y585918D01*
X1675609Y585878D01*
X1675669Y585849D01*
X1675729Y585799D01*
X1675739Y585789D01*
X1675759Y585779D01*
X1675779Y585749D01*
X1675818Y585709D01*
X1675868Y585609D01*
X1675888Y585539D01*
X1675898Y585469D01*
Y585459D01*
Y585439D01*
X1675888Y585409D01*
X1675878Y585369D01*
X1675838Y585270D01*
X1675808Y585210D01*
X1675759Y585150D01*
X1675748Y585140D01*
X1675739Y585130D01*
X1675709Y585100D01*
X1675669Y585080D01*
X1675559Y585020D01*
X1675489Y585010D01*
X1675419Y585000D01*
X1675389D01*
X1675349Y585010D01*
X1675299Y585020D01*
X1675190Y585060D01*
X1675130Y585090D01*
X1675080Y585130D01*
X1675070Y585140D01*
X1675060Y585160D01*
X1675040Y585190D01*
X1675010Y585230D01*
X1674960Y585339D01*
X1674950Y585399D01*
X1674940Y585469D01*
Y585479D01*
Y585499D01*
X1674950Y585539D01*
X1674960Y585579D01*
X1675000Y585689D01*
X1675030Y585749D01*
X1675080Y585799D01*
X1675090Y585809D01*
X1675110Y585818D01*
X1675140Y585839D01*
X1675180Y585868D01*
X1675279Y585918D01*
X1675349Y585928D01*
X1675419Y585938D01*
X1675439D01*
X1675469Y585928D01*
D02*
G37*
G36*
X1681418Y592537D02*
X1681458Y592527D01*
X1681508Y592507D01*
X1681568Y592487D01*
X1681628Y592447D01*
X1681678Y592397D01*
X1681688Y592387D01*
X1681698Y592377D01*
X1681718Y592347D01*
X1681748Y592307D01*
X1681798Y592207D01*
X1681808Y592147D01*
X1681818Y592077D01*
Y592067D01*
Y592057D01*
X1681808Y592028D01*
Y591987D01*
X1681768Y591888D01*
X1681738Y591828D01*
X1681698Y591768D01*
Y591758D01*
X1681678Y591748D01*
X1681648Y591718D01*
X1681618Y591688D01*
X1681568Y591658D01*
X1681508Y591638D01*
X1681428Y591618D01*
X1681349Y591608D01*
X1678733D01*
X1678683Y591598D01*
X1678623D01*
X1678494Y591558D01*
X1678424Y591528D01*
X1678364Y591488D01*
Y591478D01*
X1678344Y591469D01*
X1678294Y591399D01*
X1678244Y591309D01*
X1678194Y591219D01*
Y591209D01*
X1678184Y591189D01*
X1678174Y591149D01*
X1678164Y591099D01*
Y591089D01*
Y591059D01*
X1678154Y591019D01*
Y590979D01*
Y586577D01*
Y586567D01*
Y586527D01*
X1678164Y586477D01*
X1678174Y586418D01*
X1678194Y586338D01*
X1678224Y586268D01*
X1678264Y586188D01*
X1678324Y586118D01*
X1678344Y586108D01*
X1678384Y586068D01*
X1678454Y586028D01*
X1678534Y585978D01*
X1678544D01*
X1678573Y585968D01*
X1678613Y585958D01*
X1678653Y585948D01*
X1678693D01*
X1678773Y585938D01*
X1680869D01*
Y588663D01*
X1680570D01*
X1680530Y588673D01*
X1680480Y588683D01*
X1680370Y588723D01*
X1680310Y588753D01*
X1680260Y588793D01*
X1680251Y588803D01*
X1680240Y588823D01*
X1680221Y588853D01*
X1680201Y588893D01*
X1680151Y589013D01*
X1680141Y589073D01*
X1680131Y589143D01*
Y589153D01*
Y589173D01*
X1680141Y589202D01*
X1680151Y589242D01*
X1680181Y589332D01*
X1680211Y589392D01*
X1680251Y589452D01*
X1680260Y589462D01*
X1680271Y589482D01*
X1680300Y589502D01*
X1680340Y589532D01*
X1680390Y589562D01*
X1680450Y589592D01*
X1680530Y589602D01*
X1680610Y589612D01*
X1681369D01*
X1681418Y589602D01*
X1681498Y589592D01*
X1681588Y589552D01*
X1681668Y589502D01*
X1681748Y589412D01*
X1681798Y589302D01*
X1681818Y589222D01*
Y589143D01*
Y585469D01*
Y585449D01*
X1681808Y585399D01*
X1681798Y585319D01*
X1681758Y585240D01*
X1681708Y585150D01*
X1681618Y585070D01*
X1681508Y585020D01*
X1681428Y585010D01*
X1681349Y585000D01*
X1678713D01*
X1678663Y585010D01*
X1678613D01*
X1678553Y585020D01*
X1678404Y585060D01*
X1678224Y585110D01*
X1678044Y585190D01*
X1677855Y585299D01*
X1677755Y585369D01*
X1677665Y585449D01*
Y585459D01*
X1677645Y585469D01*
X1677625Y585499D01*
X1677595Y585529D01*
X1677515Y585629D01*
X1677435Y585759D01*
X1677346Y585928D01*
X1677266Y586118D01*
X1677216Y586338D01*
X1677206Y586457D01*
X1677196Y586577D01*
Y590979D01*
Y590989D01*
Y591009D01*
Y591039D01*
X1677206Y591089D01*
Y591149D01*
X1677216Y591209D01*
X1677256Y591359D01*
X1677306Y591538D01*
X1677386Y591718D01*
X1677505Y591908D01*
X1677575Y591997D01*
X1677655Y592087D01*
X1677665Y592097D01*
X1677675Y592107D01*
X1677705Y592127D01*
X1677735Y592157D01*
X1677835Y592237D01*
X1677965Y592317D01*
X1678134Y592397D01*
X1678324Y592477D01*
X1678534Y592527D01*
X1678653Y592547D01*
X1681378D01*
X1681418Y592537D01*
D02*
G37*
G36*
X1654087Y592906D02*
X1654137Y592896D01*
X1654197Y592876D01*
X1654267Y592856D01*
X1654327Y592816D01*
X1654387Y592766D01*
X1654397D01*
X1654407Y592746D01*
X1654456Y592686D01*
X1654496Y592587D01*
X1654506Y592527D01*
X1654516Y592457D01*
Y592437D01*
X1654506Y592387D01*
X1654496Y592327D01*
X1654467Y592247D01*
X1654227Y591788D01*
X1654037Y591369D01*
X1653868Y590890D01*
X1653708Y590370D01*
Y590360D01*
X1653698Y590321D01*
X1653688Y590271D01*
X1653668Y590191D01*
X1653648Y590101D01*
X1653628Y589991D01*
X1653598Y589871D01*
X1653578Y589732D01*
X1653558Y589592D01*
X1653528Y589432D01*
X1653488Y589093D01*
X1653458Y588733D01*
X1653448Y588374D01*
Y588364D01*
Y588354D01*
Y588324D01*
Y588284D01*
Y588234D01*
X1653458Y588174D01*
X1653468Y588025D01*
X1653478Y587845D01*
X1653498Y587635D01*
X1653528Y587396D01*
X1653578Y587136D01*
X1653628Y586847D01*
X1653688Y586547D01*
X1653778Y586228D01*
X1653868Y585898D01*
X1653987Y585559D01*
X1654117Y585220D01*
X1654267Y584880D01*
X1654447Y584541D01*
X1654456Y584521D01*
X1654476Y584471D01*
X1654496Y584401D01*
X1654516Y584311D01*
Y584301D01*
Y584281D01*
X1654506Y584241D01*
X1654496Y584201D01*
X1654476Y584151D01*
X1654456Y584092D01*
X1654417Y584032D01*
X1654367Y583982D01*
X1654357Y583972D01*
X1654337Y583962D01*
X1654307Y583942D01*
X1654267Y583912D01*
X1654157Y583862D01*
X1654087Y583852D01*
X1654017Y583842D01*
X1653987D01*
X1653947Y583852D01*
X1653898Y583872D01*
X1653828Y583902D01*
X1653768Y583942D01*
X1653688Y584002D01*
X1653618Y584082D01*
X1653608Y584092D01*
X1653598Y584122D01*
X1653568Y584171D01*
X1653538Y584241D01*
X1653498Y584331D01*
X1653448Y584431D01*
X1653398Y584551D01*
X1653338Y584681D01*
X1653269Y584830D01*
X1653209Y584990D01*
X1653139Y585160D01*
X1653069Y585349D01*
X1652999Y585539D01*
X1652929Y585749D01*
X1652789Y586178D01*
Y586188D01*
X1652780Y586198D01*
Y586228D01*
X1652769Y586268D01*
X1652750Y586358D01*
X1652720Y586497D01*
X1652690Y586657D01*
X1652650Y586847D01*
X1652620Y587056D01*
X1652580Y587276D01*
Y587286D01*
Y587306D01*
X1652570Y587336D01*
Y587386D01*
X1652560Y587436D01*
Y587495D01*
X1652540Y587645D01*
X1652530Y587825D01*
X1652510Y588005D01*
X1652500Y588194D01*
Y588374D01*
Y588384D01*
Y588404D01*
Y588434D01*
Y588474D01*
Y588534D01*
X1652510Y588594D01*
Y588673D01*
X1652520Y588753D01*
X1652530Y588953D01*
X1652560Y589193D01*
X1652590Y589462D01*
X1652640Y589752D01*
X1652700Y590071D01*
X1652769Y590410D01*
X1652859Y590760D01*
X1652969Y591129D01*
X1653099Y591508D01*
X1653239Y591898D01*
X1653408Y592277D01*
X1653608Y592666D01*
Y592676D01*
X1653618Y592686D01*
X1653658Y592736D01*
X1653718Y592796D01*
X1653798Y592856D01*
X1654007Y592916D01*
X1654047D01*
X1654087Y592906D01*
D02*
G37*
G36*
X1660845D02*
X1660895Y592886D01*
X1660955Y592856D01*
X1661025Y592806D01*
X1661095Y592746D01*
X1661165Y592666D01*
Y592656D01*
X1661185Y592636D01*
X1661205Y592587D01*
X1661234Y592537D01*
X1661264Y592467D01*
X1661304Y592387D01*
X1661354Y592287D01*
X1661404Y592187D01*
X1661414Y592177D01*
X1661424Y592147D01*
X1661444Y592097D01*
X1661474Y592037D01*
X1661544Y591888D01*
X1661614Y591728D01*
Y591718D01*
X1661624Y591708D01*
X1661634Y591678D01*
X1661644Y591638D01*
X1661684Y591528D01*
X1661734Y591389D01*
X1661793Y591219D01*
X1661853Y591029D01*
X1661923Y590820D01*
X1661983Y590610D01*
Y590600D01*
X1661993Y590590D01*
Y590560D01*
X1662003Y590520D01*
X1662033Y590420D01*
X1662063Y590291D01*
X1662093Y590121D01*
X1662123Y589941D01*
X1662163Y589732D01*
X1662193Y589512D01*
Y589492D01*
X1662203Y589452D01*
X1662213Y589392D01*
X1662223Y589302D01*
X1662233Y589212D01*
X1662243Y589103D01*
X1662263Y588893D01*
Y588883D01*
Y588853D01*
X1662273Y588793D01*
Y588733D01*
X1662283Y588584D01*
Y588434D01*
X1662263Y587855D01*
Y587845D01*
Y587825D01*
Y587795D01*
Y587745D01*
Y587645D01*
X1662253Y587546D01*
Y587536D01*
Y587525D01*
Y587495D01*
X1662243Y587456D01*
X1662233Y587346D01*
X1662213Y587206D01*
Y587196D01*
Y587186D01*
X1662203Y587156D01*
Y587116D01*
X1662183Y587016D01*
X1662163Y586887D01*
X1662133Y586727D01*
X1662103Y586557D01*
X1662053Y586368D01*
X1662003Y586168D01*
Y586158D01*
X1661993Y586118D01*
X1661973Y586058D01*
X1661953Y585978D01*
X1661923Y585888D01*
X1661893Y585769D01*
X1661853Y585639D01*
X1661803Y585499D01*
X1661743Y585349D01*
X1661684Y585180D01*
X1661544Y584830D01*
X1661364Y584461D01*
X1661165Y584092D01*
X1661155Y584082D01*
X1661135Y584042D01*
X1661115Y584022D01*
X1661085Y583982D01*
X1661035Y583952D01*
X1660985Y583912D01*
X1660885Y583862D01*
X1660775Y583842D01*
X1660745D01*
X1660705Y583852D01*
X1660656Y583862D01*
X1660536Y583902D01*
X1660476Y583932D01*
X1660416Y583982D01*
X1660406Y583992D01*
X1660396Y584002D01*
X1660366Y584032D01*
X1660346Y584072D01*
X1660286Y584171D01*
X1660276Y584241D01*
X1660266Y584311D01*
Y584331D01*
X1660276Y584381D01*
X1660296Y584451D01*
X1660326Y584541D01*
X1660336Y584551D01*
X1660346Y584581D01*
X1660366Y584621D01*
X1660396Y584681D01*
X1660436Y584760D01*
X1660486Y584850D01*
X1660526Y584950D01*
X1660586Y585070D01*
X1660636Y585200D01*
X1660695Y585339D01*
X1660765Y585499D01*
X1660825Y585659D01*
X1660945Y586008D01*
X1661065Y586387D01*
Y586398D01*
X1661075Y586437D01*
X1661085Y586487D01*
X1661105Y586567D01*
X1661125Y586657D01*
X1661145Y586767D01*
X1661174Y586897D01*
X1661194Y587026D01*
X1661214Y587176D01*
X1661244Y587336D01*
X1661284Y587665D01*
X1661314Y588015D01*
X1661324Y588374D01*
Y588384D01*
Y588404D01*
Y588434D01*
Y588474D01*
Y588594D01*
X1661314Y588733D01*
Y588893D01*
X1661304Y589073D01*
X1661294Y589242D01*
X1661274Y589412D01*
Y589422D01*
Y589432D01*
X1661264Y589492D01*
X1661254Y589582D01*
X1661234Y589692D01*
X1661214Y589831D01*
X1661174Y589991D01*
X1661135Y590161D01*
X1661085Y590340D01*
X1660945Y590869D01*
X1660875Y591049D01*
X1660775Y591299D01*
X1660765Y591319D01*
X1660745Y591369D01*
X1660715Y591449D01*
X1660665Y591558D01*
X1660605Y591698D01*
X1660526Y591858D01*
X1660436Y592037D01*
X1660326Y592227D01*
X1660266Y592447D01*
Y592457D01*
Y592477D01*
X1660276Y592507D01*
X1660286Y592556D01*
X1660306Y592606D01*
X1660326Y592656D01*
X1660366Y592716D01*
X1660416Y592766D01*
X1660426Y592776D01*
X1660446Y592786D01*
X1660476Y592816D01*
X1660516Y592846D01*
X1660636Y592896D01*
X1660695Y592906D01*
X1660765Y592916D01*
X1660805D01*
X1660845Y592906D01*
D02*
G37*
G36*
X1658559Y590331D02*
X1658609Y590321D01*
X1658709Y590281D01*
X1658769Y590251D01*
X1658819Y590201D01*
X1658829Y590191D01*
X1658839Y590181D01*
X1658869Y590151D01*
X1658899Y590111D01*
X1658949Y590011D01*
X1658958Y589951D01*
X1658969Y589881D01*
Y589871D01*
Y589851D01*
X1658958Y589821D01*
Y589781D01*
X1658919Y589682D01*
X1658889Y589622D01*
X1658849Y589562D01*
Y589552D01*
X1658829Y589542D01*
X1658799Y589512D01*
X1658769Y589482D01*
X1658719Y589452D01*
X1658659Y589432D01*
X1658579Y589412D01*
X1658499Y589402D01*
X1657351D01*
X1657301Y589392D01*
X1657242D01*
X1657112Y589352D01*
X1657042Y589332D01*
X1656982Y589292D01*
Y589282D01*
X1656962Y589262D01*
X1656942Y589232D01*
X1656912Y589202D01*
X1656862Y589103D01*
X1656812Y589013D01*
Y589003D01*
X1656802Y588983D01*
X1656792Y588943D01*
X1656782Y588903D01*
Y588893D01*
Y588863D01*
X1656772Y588823D01*
Y588773D01*
Y586577D01*
Y586567D01*
Y586527D01*
X1656782Y586477D01*
X1656792Y586418D01*
X1656812Y586338D01*
X1656842Y586268D01*
X1656882Y586188D01*
X1656942Y586118D01*
X1656962Y586108D01*
X1657002Y586068D01*
X1657072Y586028D01*
X1657152Y585978D01*
X1657162D01*
X1657192Y585968D01*
X1657232Y585958D01*
X1657272Y585948D01*
X1657311D01*
X1657391Y585938D01*
X1658529D01*
X1658559Y585928D01*
X1658609Y585918D01*
X1658659Y585898D01*
X1658709Y585878D01*
X1658769Y585839D01*
X1658819Y585789D01*
X1658829Y585779D01*
X1658839Y585769D01*
X1658869Y585739D01*
X1658899Y585699D01*
X1658949Y585599D01*
X1658958Y585539D01*
X1658969Y585469D01*
Y585459D01*
Y585449D01*
X1658958Y585419D01*
Y585379D01*
X1658919Y585280D01*
X1658889Y585220D01*
X1658849Y585160D01*
Y585150D01*
X1658829Y585140D01*
X1658799Y585110D01*
X1658769Y585080D01*
X1658719Y585050D01*
X1658659Y585030D01*
X1658579Y585010D01*
X1658499Y585000D01*
X1657331D01*
X1657292Y585010D01*
X1657232D01*
X1657172Y585020D01*
X1657022Y585060D01*
X1656852Y585110D01*
X1656663Y585190D01*
X1656483Y585299D01*
X1656383Y585369D01*
X1656293Y585449D01*
X1656283Y585459D01*
X1656273Y585469D01*
X1656253Y585499D01*
X1656223Y585529D01*
X1656143Y585629D01*
X1656054Y585759D01*
X1655964Y585928D01*
X1655894Y586118D01*
X1655834Y586338D01*
X1655824Y586457D01*
X1655814Y586577D01*
Y588773D01*
Y588783D01*
Y588803D01*
Y588833D01*
X1655824Y588883D01*
Y588943D01*
X1655834Y589003D01*
X1655874Y589153D01*
X1655924Y589332D01*
X1656004Y589512D01*
X1656124Y589702D01*
X1656193Y589791D01*
X1656273Y589881D01*
X1656283Y589891D01*
X1656293Y589901D01*
X1656323Y589921D01*
X1656353Y589951D01*
X1656453Y590031D01*
X1656583Y590111D01*
X1656752Y590191D01*
X1656942Y590271D01*
X1657152Y590321D01*
X1657272Y590340D01*
X1658529D01*
X1658559Y590331D01*
D02*
G37*
G36*
X1686350Y592537D02*
X1686409D01*
X1686479Y592527D01*
X1686629Y592487D01*
X1686809Y592437D01*
X1686998Y592357D01*
X1687178Y592237D01*
X1687268Y592167D01*
X1687358Y592087D01*
X1687368Y592077D01*
X1687378Y592067D01*
X1687428Y592007D01*
X1687508Y591908D01*
X1687587Y591778D01*
X1687667Y591618D01*
X1687747Y591428D01*
X1687797Y591209D01*
X1687817Y591099D01*
Y590979D01*
Y589512D01*
Y589502D01*
Y589482D01*
Y589452D01*
X1687807Y589402D01*
Y589352D01*
X1687797Y589282D01*
X1687757Y589133D01*
X1687707Y588953D01*
X1687627Y588763D01*
X1687508Y588574D01*
X1687438Y588484D01*
X1687358Y588394D01*
X1687348D01*
X1687338Y588374D01*
X1687308Y588354D01*
X1687278Y588324D01*
X1687178Y588244D01*
X1687048Y588164D01*
X1686879Y588084D01*
X1686689Y588005D01*
X1686479Y587955D01*
X1686360Y587945D01*
X1686240Y587935D01*
X1686280D01*
X1687757Y585709D01*
X1687777Y585639D01*
X1687817Y585469D01*
Y585459D01*
Y585439D01*
X1687807Y585399D01*
X1687797Y585359D01*
X1687757Y585250D01*
X1687727Y585190D01*
X1687677Y585140D01*
X1687667Y585130D01*
X1687647Y585120D01*
X1687617Y585100D01*
X1687577Y585070D01*
X1687468Y585020D01*
X1687398Y585010D01*
X1687328Y585000D01*
X1687268D01*
X1687208Y585010D01*
X1687128Y585030D01*
X1687108Y585040D01*
X1687068Y585080D01*
X1687009Y585140D01*
X1686939Y585220D01*
X1685242Y587935D01*
X1684154D01*
Y585469D01*
Y585459D01*
Y585429D01*
X1684144Y585389D01*
X1684134Y585349D01*
X1684104Y585230D01*
X1684064Y585180D01*
X1684024Y585130D01*
X1684014Y585120D01*
X1683994Y585110D01*
X1683964Y585090D01*
X1683924Y585070D01*
X1683814Y585020D01*
X1683744Y585010D01*
X1683674Y585000D01*
X1683645D01*
X1683604Y585010D01*
X1683565Y585020D01*
X1683455Y585050D01*
X1683395Y585080D01*
X1683335Y585120D01*
X1683325Y585130D01*
X1683315Y585140D01*
X1683295Y585170D01*
X1683265Y585210D01*
X1683235Y585260D01*
X1683215Y585319D01*
X1683205Y585389D01*
X1683195Y585469D01*
Y592077D01*
Y592087D01*
Y592097D01*
X1683205Y592147D01*
X1683225Y592227D01*
X1683255Y592317D01*
X1683315Y592397D01*
X1683395Y592477D01*
X1683515Y592527D01*
X1683595Y592547D01*
X1686310D01*
X1686350Y592537D01*
D02*
G37*
G36*
X1706604D02*
X1706663D01*
X1706733Y592527D01*
X1706883Y592487D01*
X1707063Y592437D01*
X1707252Y592357D01*
X1707432Y592237D01*
X1707522Y592167D01*
X1707612Y592087D01*
X1707622Y592077D01*
X1707632Y592067D01*
X1707682Y592007D01*
X1707762Y591908D01*
X1707841Y591778D01*
X1707921Y591618D01*
X1708001Y591428D01*
X1708051Y591209D01*
X1708071Y591099D01*
Y590979D01*
Y589512D01*
Y589502D01*
Y589482D01*
Y589452D01*
X1708061Y589402D01*
Y589352D01*
X1708051Y589282D01*
X1708011Y589133D01*
X1707961Y588953D01*
X1707881Y588763D01*
X1707762Y588574D01*
X1707692Y588484D01*
X1707612Y588394D01*
X1707602D01*
X1707592Y588374D01*
X1707562Y588354D01*
X1707532Y588324D01*
X1707432Y588244D01*
X1707302Y588164D01*
X1707133Y588084D01*
X1706943Y588005D01*
X1706733Y587955D01*
X1706613Y587945D01*
X1706494Y587935D01*
X1706534D01*
X1708011Y585709D01*
X1708031Y585639D01*
X1708071Y585469D01*
Y585459D01*
Y585439D01*
X1708061Y585399D01*
X1708051Y585359D01*
X1708011Y585250D01*
X1707981Y585190D01*
X1707931Y585140D01*
X1707921Y585130D01*
X1707901Y585120D01*
X1707871Y585100D01*
X1707831Y585070D01*
X1707722Y585020D01*
X1707652Y585010D01*
X1707582Y585000D01*
X1707522D01*
X1707462Y585010D01*
X1707382Y585030D01*
X1707362Y585040D01*
X1707322Y585080D01*
X1707262Y585140D01*
X1707193Y585220D01*
X1705495Y587935D01*
X1704407D01*
Y585469D01*
Y585459D01*
Y585429D01*
X1704397Y585389D01*
X1704388Y585349D01*
X1704357Y585230D01*
X1704318Y585180D01*
X1704278Y585130D01*
X1704268Y585120D01*
X1704248Y585110D01*
X1704218Y585090D01*
X1704178Y585070D01*
X1704068Y585020D01*
X1703998Y585010D01*
X1703928Y585000D01*
X1703898D01*
X1703858Y585010D01*
X1703819Y585020D01*
X1703709Y585050D01*
X1703649Y585080D01*
X1703589Y585120D01*
X1703579Y585130D01*
X1703569Y585140D01*
X1703549Y585170D01*
X1703519Y585210D01*
X1703489Y585260D01*
X1703469Y585319D01*
X1703459Y585389D01*
X1703449Y585469D01*
Y592077D01*
Y592087D01*
Y592097D01*
X1703459Y592147D01*
X1703479Y592227D01*
X1703509Y592317D01*
X1703569Y592397D01*
X1703649Y592477D01*
X1703769Y592527D01*
X1703848Y592547D01*
X1706564D01*
X1706604Y592537D01*
D02*
G37*
G36*
X1709998D02*
X1710037D01*
X1710147Y592497D01*
X1710197Y592467D01*
X1710257Y592427D01*
X1710267Y592417D01*
X1710277Y592407D01*
X1710307Y592377D01*
X1710337Y592337D01*
X1710357Y592287D01*
X1710387Y592227D01*
X1710397Y592157D01*
X1710407Y592077D01*
Y585469D01*
Y585459D01*
Y585429D01*
X1710397Y585389D01*
X1710387Y585349D01*
X1710357Y585230D01*
X1710317Y585180D01*
X1710277Y585130D01*
X1710267Y585120D01*
X1710247Y585110D01*
X1710217Y585090D01*
X1710177Y585070D01*
X1710067Y585020D01*
X1709998Y585010D01*
X1709928Y585000D01*
X1709898D01*
X1709858Y585010D01*
X1709818Y585020D01*
X1709708Y585050D01*
X1709648Y585080D01*
X1709588Y585120D01*
X1709578Y585130D01*
X1709568Y585140D01*
X1709548Y585170D01*
X1709518Y585210D01*
X1709488Y585260D01*
X1709468Y585319D01*
X1709458Y585389D01*
X1709448Y585469D01*
Y592077D01*
Y592087D01*
Y592107D01*
X1709458Y592137D01*
X1709468Y592187D01*
X1709508Y592297D01*
X1709538Y592357D01*
X1709588Y592417D01*
X1709598Y592427D01*
X1709618Y592437D01*
X1709648Y592457D01*
X1709688Y592487D01*
X1709798Y592527D01*
X1709858Y592537D01*
X1709928Y592547D01*
X1709957D01*
X1709998Y592537D01*
D02*
G37*
G36*
X1715198D02*
X1715238Y592527D01*
X1715288Y592507D01*
X1715348Y592487D01*
X1715408Y592447D01*
X1715458Y592397D01*
X1715468Y592387D01*
X1715478Y592377D01*
X1715498Y592347D01*
X1715528Y592307D01*
X1715578Y592207D01*
X1715587Y592147D01*
X1715598Y592077D01*
Y592067D01*
Y592047D01*
X1715587Y592018D01*
Y591978D01*
X1715548Y591878D01*
X1715518Y591818D01*
X1715478Y591758D01*
Y591748D01*
X1715458Y591738D01*
X1715428Y591708D01*
X1715398Y591688D01*
X1715348Y591658D01*
X1715288Y591628D01*
X1715208Y591618D01*
X1715128Y591608D01*
X1712663D01*
Y589612D01*
X1714420D01*
X1714460Y589602D01*
X1714499Y589592D01*
X1714549Y589572D01*
X1714609Y589552D01*
X1714669Y589512D01*
X1714719Y589462D01*
X1714729Y589452D01*
X1714739Y589442D01*
X1714769Y589412D01*
X1714799Y589372D01*
X1714849Y589272D01*
X1714859Y589212D01*
X1714869Y589143D01*
Y589133D01*
Y589113D01*
X1714859Y589083D01*
Y589043D01*
X1714819Y588943D01*
X1714789Y588883D01*
X1714749Y588823D01*
X1714739Y588813D01*
X1714729Y588803D01*
X1714699Y588773D01*
X1714659Y588743D01*
X1714609Y588713D01*
X1714549Y588693D01*
X1714469Y588673D01*
X1714390Y588663D01*
X1712663D01*
Y585938D01*
X1715158D01*
X1715198Y585928D01*
X1715238Y585918D01*
X1715288Y585898D01*
X1715348Y585878D01*
X1715408Y585839D01*
X1715458Y585789D01*
X1715468Y585779D01*
X1715478Y585769D01*
X1715498Y585739D01*
X1715528Y585699D01*
X1715578Y585599D01*
X1715587Y585539D01*
X1715598Y585469D01*
Y585459D01*
Y585439D01*
X1715587Y585409D01*
Y585369D01*
X1715548Y585270D01*
X1715518Y585210D01*
X1715478Y585150D01*
Y585140D01*
X1715458Y585130D01*
X1715428Y585100D01*
X1715398Y585080D01*
X1715348Y585050D01*
X1715288Y585020D01*
X1715208Y585010D01*
X1715128Y585000D01*
X1712164D01*
X1712114Y585010D01*
X1712034Y585020D01*
X1711944Y585060D01*
X1711854Y585110D01*
X1711784Y585190D01*
X1711724Y585299D01*
X1711714Y585369D01*
X1711704Y585449D01*
Y592077D01*
Y592087D01*
Y592097D01*
X1711714Y592147D01*
X1711734Y592227D01*
X1711764Y592317D01*
X1711824Y592397D01*
X1711904Y592477D01*
X1712024Y592527D01*
X1712104Y592547D01*
X1715158D01*
X1715198Y592537D01*
D02*
G37*
G36*
X1689744D02*
X1689783D01*
X1689893Y592497D01*
X1689943Y592467D01*
X1690003Y592427D01*
X1690013Y592417D01*
X1690023Y592407D01*
X1690053Y592377D01*
X1690083Y592337D01*
X1690103Y592287D01*
X1690133Y592227D01*
X1690143Y592157D01*
X1690153Y592077D01*
Y585469D01*
Y585459D01*
Y585429D01*
X1690143Y585389D01*
X1690133Y585349D01*
X1690103Y585230D01*
X1690063Y585180D01*
X1690023Y585130D01*
X1690013Y585120D01*
X1689993Y585110D01*
X1689963Y585090D01*
X1689923Y585070D01*
X1689814Y585020D01*
X1689744Y585010D01*
X1689674Y585000D01*
X1689644D01*
X1689604Y585010D01*
X1689564Y585020D01*
X1689454Y585050D01*
X1689394Y585080D01*
X1689334Y585120D01*
X1689324Y585130D01*
X1689314Y585140D01*
X1689294Y585170D01*
X1689264Y585210D01*
X1689234Y585260D01*
X1689214Y585319D01*
X1689205Y585389D01*
X1689195Y585469D01*
Y592077D01*
Y592087D01*
Y592107D01*
X1689205Y592137D01*
X1689214Y592187D01*
X1689254Y592297D01*
X1689284Y592357D01*
X1689334Y592417D01*
X1689344Y592427D01*
X1689364Y592437D01*
X1689394Y592457D01*
X1689434Y592487D01*
X1689544Y592527D01*
X1689604Y592537D01*
X1689674Y592547D01*
X1689704D01*
X1689744Y592537D01*
D02*
G37*
G36*
X1695673D02*
X1695713Y592527D01*
X1695763Y592507D01*
X1695823Y592487D01*
X1695883Y592447D01*
X1695932Y592397D01*
X1695943Y592387D01*
X1695952Y592377D01*
X1695972Y592347D01*
X1696002Y592307D01*
X1696052Y592207D01*
X1696062Y592147D01*
X1696072Y592077D01*
Y592067D01*
Y592057D01*
X1696062Y592028D01*
Y591987D01*
X1696022Y591888D01*
X1695992Y591828D01*
X1695952Y591768D01*
Y591758D01*
X1695932Y591748D01*
X1695903Y591718D01*
X1695873Y591688D01*
X1695823Y591658D01*
X1695763Y591638D01*
X1695683Y591618D01*
X1695603Y591608D01*
X1692988D01*
X1692938Y591598D01*
X1692878D01*
X1692748Y591558D01*
X1692678Y591528D01*
X1692619Y591488D01*
Y591478D01*
X1692599Y591469D01*
X1692549Y591399D01*
X1692499Y591309D01*
X1692449Y591219D01*
Y591209D01*
X1692439Y591189D01*
X1692429Y591149D01*
X1692419Y591099D01*
Y591089D01*
Y591059D01*
X1692409Y591019D01*
Y590979D01*
Y586577D01*
Y586567D01*
Y586527D01*
X1692419Y586477D01*
X1692429Y586418D01*
X1692449Y586338D01*
X1692479Y586268D01*
X1692519Y586188D01*
X1692578Y586118D01*
X1692599Y586108D01*
X1692638Y586068D01*
X1692708Y586028D01*
X1692788Y585978D01*
X1692798D01*
X1692828Y585968D01*
X1692868Y585958D01*
X1692908Y585948D01*
X1692948D01*
X1693028Y585938D01*
X1695124D01*
Y588663D01*
X1694825D01*
X1694785Y588673D01*
X1694735Y588683D01*
X1694625Y588723D01*
X1694565Y588753D01*
X1694515Y588793D01*
X1694505Y588803D01*
X1694495Y588823D01*
X1694475Y588853D01*
X1694455Y588893D01*
X1694405Y589013D01*
X1694395Y589073D01*
X1694385Y589143D01*
Y589153D01*
Y589173D01*
X1694395Y589202D01*
X1694405Y589242D01*
X1694435Y589332D01*
X1694465Y589392D01*
X1694505Y589452D01*
X1694515Y589462D01*
X1694525Y589482D01*
X1694555Y589502D01*
X1694595Y589532D01*
X1694645Y589562D01*
X1694705Y589592D01*
X1694785Y589602D01*
X1694865Y589612D01*
X1695623D01*
X1695673Y589602D01*
X1695753Y589592D01*
X1695843Y589552D01*
X1695923Y589502D01*
X1696002Y589412D01*
X1696052Y589302D01*
X1696072Y589222D01*
Y589143D01*
Y585469D01*
Y585449D01*
X1696062Y585399D01*
X1696052Y585319D01*
X1696012Y585240D01*
X1695963Y585150D01*
X1695873Y585070D01*
X1695763Y585020D01*
X1695683Y585010D01*
X1695603Y585000D01*
X1692968D01*
X1692918Y585010D01*
X1692868D01*
X1692808Y585020D01*
X1692658Y585060D01*
X1692479Y585110D01*
X1692299Y585190D01*
X1692109Y585299D01*
X1692009Y585369D01*
X1691920Y585449D01*
Y585459D01*
X1691900Y585469D01*
X1691880Y585499D01*
X1691850Y585529D01*
X1691770Y585629D01*
X1691690Y585759D01*
X1691600Y585928D01*
X1691520Y586118D01*
X1691470Y586338D01*
X1691461Y586457D01*
X1691451Y586577D01*
Y590979D01*
Y590989D01*
Y591009D01*
Y591039D01*
X1691461Y591089D01*
Y591149D01*
X1691470Y591209D01*
X1691510Y591359D01*
X1691560Y591538D01*
X1691640Y591718D01*
X1691760Y591908D01*
X1691830Y591997D01*
X1691910Y592087D01*
X1691920Y592097D01*
X1691930Y592107D01*
X1691960Y592127D01*
X1691990Y592157D01*
X1692089Y592237D01*
X1692219Y592317D01*
X1692389Y592397D01*
X1692578Y592477D01*
X1692788Y592527D01*
X1692908Y592547D01*
X1695633D01*
X1695673Y592537D01*
D02*
G37*
G36*
X1700604D02*
X1700664D01*
X1700734Y592527D01*
X1700884Y592487D01*
X1701063Y592437D01*
X1701253Y592357D01*
X1701433Y592237D01*
X1701523Y592167D01*
X1701612Y592087D01*
X1701622Y592077D01*
X1701632Y592067D01*
X1701682Y592007D01*
X1701762Y591908D01*
X1701842Y591778D01*
X1701922Y591618D01*
X1702002Y591428D01*
X1702052Y591209D01*
X1702072Y591099D01*
Y590979D01*
Y586577D01*
Y586567D01*
Y586547D01*
Y586517D01*
X1702062Y586467D01*
Y586418D01*
X1702052Y586348D01*
X1702012Y586198D01*
X1701962Y586018D01*
X1701882Y585829D01*
X1701762Y585639D01*
X1701692Y585549D01*
X1701612Y585459D01*
X1701602D01*
X1701593Y585439D01*
X1701562Y585419D01*
X1701533Y585389D01*
X1701433Y585309D01*
X1701303Y585230D01*
X1701133Y585150D01*
X1700944Y585070D01*
X1700734Y585020D01*
X1700614Y585010D01*
X1700494Y585000D01*
X1698967D01*
X1698917Y585010D01*
X1698867D01*
X1698807Y585020D01*
X1698658Y585060D01*
X1698478Y585110D01*
X1698298Y585190D01*
X1698109Y585299D01*
X1698009Y585369D01*
X1697919Y585449D01*
Y585459D01*
X1697899Y585469D01*
X1697879Y585499D01*
X1697849Y585529D01*
X1697769Y585629D01*
X1697689Y585759D01*
X1697600Y585928D01*
X1697520Y586118D01*
X1697470Y586338D01*
X1697460Y586457D01*
X1697450Y586577D01*
Y590979D01*
Y590989D01*
Y591009D01*
Y591039D01*
X1697460Y591089D01*
Y591149D01*
X1697470Y591209D01*
X1697510Y591359D01*
X1697560Y591538D01*
X1697639Y591718D01*
X1697759Y591908D01*
X1697829Y591997D01*
X1697909Y592087D01*
X1697919Y592097D01*
X1697929Y592107D01*
X1697959Y592127D01*
X1697989Y592157D01*
X1698089Y592237D01*
X1698219Y592317D01*
X1698388Y592397D01*
X1698578Y592477D01*
X1698788Y592527D01*
X1698907Y592547D01*
X1700564D01*
X1700604Y592537D01*
D02*
G37*
G36*
X1748368Y631397D02*
X1744294D01*
Y620000D01*
X1741520D01*
Y631397D01*
X1737446D01*
Y633722D01*
X1748368D01*
Y631397D01*
D02*
G37*
G36*
X1646694Y637500D02*
X1643720D01*
X1638846Y651221D01*
X1641821D01*
X1645320Y641049D01*
X1648669Y651221D01*
X1651618D01*
X1646694Y637500D01*
D02*
G37*
G36*
X1261335Y526683D02*
X1261370Y526675D01*
X1261419Y526668D01*
X1261525Y526619D01*
X1261575Y526584D01*
X1261631Y526541D01*
X1261638Y526534D01*
X1261652Y526520D01*
X1261673Y526485D01*
X1261702Y526457D01*
X1261751Y526351D01*
X1261765Y526294D01*
X1261779Y526224D01*
Y526210D01*
Y526195D01*
Y526153D01*
X1261772Y526104D01*
X1261751Y526054D01*
X1261730Y525991D01*
X1261687Y525934D01*
X1261638Y525871D01*
X1257297Y521530D01*
X1259034Y519793D01*
X1259041Y519786D01*
X1259055Y519772D01*
X1259076Y519737D01*
X1259097Y519702D01*
X1259118Y519652D01*
X1259146Y519596D01*
X1259161Y519525D01*
Y519455D01*
Y519440D01*
Y519426D01*
Y519384D01*
X1259154Y519335D01*
X1259118Y519229D01*
X1259083Y519179D01*
X1259041Y519123D01*
X1259034Y519116D01*
X1259026Y519109D01*
X1258998Y519095D01*
X1258970Y519066D01*
X1258871Y519024D01*
X1258808Y519003D01*
X1258737Y518989D01*
X1258667D01*
X1258617Y518996D01*
X1258561Y519010D01*
X1258504Y519038D01*
X1258434Y519081D01*
X1258370Y519130D01*
X1256295Y521205D01*
X1256288Y521212D01*
X1256281Y521219D01*
X1256253Y521262D01*
X1256210Y521332D01*
X1256168Y521417D01*
X1256147Y521523D01*
X1256154Y521629D01*
X1256196Y521756D01*
X1256238Y521812D01*
X1256288Y521876D01*
X1260960Y526548D01*
X1260968Y526555D01*
X1260982Y526570D01*
X1261010Y526584D01*
X1261052Y526612D01*
X1261158Y526661D01*
X1261222Y526683D01*
X1261299Y526690D01*
X1261313D01*
X1261335Y526683D01*
D02*
G37*
G36*
X1257791Y530353D02*
X1257862Y530311D01*
X1257918Y530254D01*
X1260001Y528172D01*
X1260008Y528165D01*
X1260022Y528151D01*
X1260043Y528115D01*
X1260064Y528080D01*
X1260085Y528031D01*
X1260114Y527974D01*
X1260128Y527904D01*
Y527833D01*
Y527819D01*
Y527805D01*
X1260121Y527770D01*
X1260114Y527720D01*
X1260078Y527614D01*
X1260043Y527565D01*
X1260001Y527508D01*
X1259994Y527501D01*
X1259979Y527487D01*
X1259951Y527473D01*
X1259923Y527445D01*
X1259824Y527402D01*
X1259761Y527381D01*
X1259690Y527367D01*
X1259683Y527360D01*
X1259662Y527367D01*
X1259619D01*
X1259584Y527374D01*
X1259528Y527388D01*
X1259464Y527410D01*
X1259401Y527459D01*
X1259337Y527508D01*
X1257594Y529252D01*
X1256182Y527840D01*
X1257403Y526619D01*
X1257410Y526612D01*
X1257424Y526598D01*
X1257445Y526562D01*
X1257467Y526527D01*
X1257488Y526478D01*
X1257516Y526421D01*
X1257530Y526351D01*
Y526280D01*
Y526266D01*
Y526252D01*
Y526210D01*
X1257523Y526160D01*
X1257488Y526054D01*
X1257452Y526005D01*
X1257410Y525948D01*
X1257403Y525941D01*
X1257389Y525927D01*
X1257361Y525913D01*
X1257333Y525885D01*
X1257234Y525843D01*
X1257170Y525821D01*
X1257100Y525807D01*
X1257029D01*
X1256980Y525814D01*
X1256923Y525828D01*
X1256867Y525857D01*
X1256796Y525899D01*
X1256732Y525948D01*
X1255511Y527170D01*
X1253584Y525243D01*
X1255328Y523499D01*
X1255335Y523492D01*
X1255349Y523478D01*
X1255370Y523443D01*
X1255391Y523407D01*
X1255413Y523358D01*
X1255441Y523302D01*
X1255455Y523231D01*
Y523160D01*
Y523146D01*
Y523132D01*
X1255448Y523097D01*
X1255441Y523047D01*
X1255406Y522942D01*
X1255370Y522892D01*
X1255328Y522836D01*
X1255321Y522829D01*
X1255307Y522814D01*
X1255278Y522800D01*
X1255250Y522772D01*
X1255151Y522730D01*
X1255088Y522709D01*
X1255017Y522695D01*
X1255010Y522687D01*
X1254989Y522695D01*
X1254947D01*
X1254911Y522701D01*
X1254855Y522716D01*
X1254791Y522737D01*
X1254728Y522786D01*
X1254664Y522836D01*
X1252582Y524918D01*
X1252575Y524925D01*
X1252568Y524932D01*
X1252540Y524974D01*
X1252490Y525038D01*
X1252455Y525130D01*
X1252427Y525229D01*
X1252434Y525334D01*
X1252469Y525454D01*
X1252512Y525511D01*
X1252561Y525574D01*
X1257248Y530261D01*
X1257255Y530268D01*
X1257262Y530275D01*
X1257304Y530303D01*
X1257375Y530346D01*
X1257459Y530388D01*
X1257558Y530402D01*
X1257671D01*
X1257791Y530353D01*
D02*
G37*
G36*
X1273024Y514994D02*
X1273073Y514987D01*
X1273186Y514958D01*
X1273242Y514916D01*
X1273299Y514874D01*
X1273306Y514867D01*
X1273313Y514860D01*
X1273348Y514810D01*
X1273391Y514740D01*
X1273419Y514641D01*
X1273426Y514634D01*
Y514620D01*
Y514549D01*
X1273419Y514500D01*
X1273412Y514436D01*
X1273398Y514366D01*
X1273376Y514288D01*
X1270419Y509763D01*
X1273024Y511083D01*
X1273045Y511090D01*
X1273087Y511105D01*
X1273143Y511119D01*
X1273228Y511133D01*
X1273320Y511140D01*
X1273412Y511119D01*
X1273503Y511083D01*
X1273595Y511020D01*
X1273602Y511013D01*
X1273623Y510977D01*
X1273652Y510935D01*
X1273680Y510864D01*
X1273701Y510787D01*
X1273708Y510681D01*
X1273687Y510561D01*
X1273645Y510420D01*
X1272339Y507843D01*
X1276856Y510794D01*
X1276870Y510808D01*
X1276913Y510822D01*
X1276976Y510843D01*
X1277054Y510864D01*
X1277139D01*
X1277237Y510850D01*
X1277336Y510808D01*
X1277442Y510730D01*
X1277449Y510723D01*
X1277463Y510709D01*
X1277484Y510674D01*
X1277513Y510631D01*
X1277562Y510526D01*
X1277583Y510462D01*
Y510392D01*
X1277590Y510384D01*
X1277583Y510363D01*
Y510321D01*
Y510279D01*
X1277548Y510173D01*
X1277506Y510116D01*
X1277463Y510060D01*
X1277378Y509989D01*
X1271668Y506354D01*
X1271661Y506347D01*
X1271647Y506333D01*
X1271619Y506319D01*
X1271583Y506312D01*
X1271485Y506283D01*
X1271428Y506269D01*
X1271365Y506277D01*
X1271358Y506283D01*
X1271337Y506277D01*
X1271308Y506291D01*
X1271266Y506305D01*
X1271181Y506347D01*
X1271082Y506418D01*
X1271075Y506425D01*
X1271054Y506460D01*
X1271019Y506509D01*
X1270984Y506573D01*
X1270955Y506658D01*
X1270948Y506749D01*
Y506848D01*
X1270984Y506968D01*
X1272395Y509820D01*
X1269537Y508401D01*
X1269522D01*
X1269473Y508380D01*
X1269388Y508366D01*
X1269325Y508359D01*
X1269254D01*
X1269247Y508366D01*
X1269233D01*
X1269169Y508387D01*
X1269085Y508429D01*
X1269000Y508500D01*
X1268986Y508514D01*
X1268965Y508549D01*
X1268930Y508599D01*
X1268894Y508676D01*
X1268866Y508761D01*
Y508860D01*
X1268880Y508973D01*
X1268937Y509100D01*
X1272565Y514803D01*
X1272635Y514888D01*
X1272642Y514895D01*
X1272656Y514909D01*
X1272685Y514923D01*
X1272713Y514937D01*
X1272812Y514980D01*
X1272868Y514994D01*
X1272946Y515001D01*
X1272988D01*
X1273024Y514994D01*
D02*
G37*
G36*
X1268781Y518798D02*
X1268824D01*
X1268951Y518784D01*
X1269099Y518749D01*
X1269275Y518685D01*
X1269466Y518608D01*
X1269650Y518495D01*
X1269748Y518424D01*
X1269833Y518339D01*
X1270871Y517302D01*
X1270878Y517295D01*
X1270892Y517281D01*
X1270920Y517252D01*
X1270941Y517217D01*
X1270984Y517175D01*
X1271026Y517118D01*
X1271104Y516984D01*
X1271195Y516822D01*
X1271273Y516631D01*
X1271315Y516419D01*
X1271329Y516307D01*
X1271337Y516186D01*
Y516172D01*
Y516158D01*
X1271329Y516081D01*
X1271315Y515954D01*
X1271280Y515805D01*
X1271224Y515636D01*
X1271146Y515445D01*
X1271026Y515255D01*
X1270962Y515163D01*
X1270878Y515078D01*
X1267765Y511966D01*
X1267758Y511959D01*
X1267744Y511944D01*
X1267722Y511923D01*
X1267680Y511895D01*
X1267645Y511860D01*
X1267588Y511817D01*
X1267454Y511740D01*
X1267292Y511648D01*
X1267101Y511570D01*
X1266883Y511521D01*
X1266770Y511507D01*
X1266650Y511500D01*
X1266643Y511507D01*
X1266621Y511500D01*
X1266586Y511507D01*
X1266544D01*
X1266417Y511521D01*
X1266268Y511556D01*
X1266092Y511620D01*
X1265901Y511697D01*
X1265718Y511810D01*
X1265626Y511888D01*
X1265534Y511966D01*
X1264497Y513003D01*
X1264490Y513010D01*
X1264476Y513024D01*
X1264454Y513046D01*
X1264426Y513088D01*
X1264391Y513123D01*
X1264356Y513173D01*
X1264278Y513307D01*
X1264186Y513469D01*
X1264116Y513653D01*
X1264059Y513864D01*
X1264038Y513984D01*
X1264031Y514104D01*
X1264038Y514111D01*
X1264031Y514133D01*
X1264038Y514168D01*
Y514210D01*
X1264052Y514337D01*
X1264087Y514486D01*
X1264144Y514669D01*
X1264221Y514860D01*
X1264342Y515050D01*
X1264419Y515142D01*
X1264497Y515234D01*
X1267610Y518346D01*
X1267617Y518354D01*
X1267631Y518368D01*
X1267652Y518389D01*
X1267694Y518417D01*
X1267737Y518459D01*
X1267786Y518495D01*
X1267920Y518572D01*
X1268083Y518664D01*
X1268266Y518735D01*
X1268485Y518784D01*
X1268598Y518798D01*
X1268718Y518805D01*
X1268746D01*
X1268781Y518798D01*
D02*
G37*
G36*
X1265047Y522970D02*
X1265083Y522963D01*
X1265132Y522956D01*
X1265238Y522906D01*
X1265287Y522871D01*
X1265344Y522829D01*
X1265351Y522822D01*
X1265365Y522807D01*
X1265386Y522772D01*
X1265414Y522744D01*
X1265464Y522638D01*
X1265478Y522581D01*
X1265492Y522511D01*
Y522497D01*
Y522483D01*
Y522440D01*
X1265485Y522391D01*
X1265464Y522342D01*
X1265443Y522278D01*
X1265400Y522222D01*
X1265351Y522158D01*
X1261010Y517817D01*
X1262746Y516081D01*
X1262753Y516074D01*
X1262767Y516059D01*
X1262789Y516024D01*
X1262810Y515989D01*
X1262831Y515939D01*
X1262859Y515883D01*
X1262873Y515812D01*
Y515742D01*
Y515728D01*
Y515714D01*
Y515671D01*
X1262866Y515622D01*
X1262831Y515516D01*
X1262796Y515467D01*
X1262753Y515410D01*
X1262746Y515403D01*
X1262739Y515396D01*
X1262711Y515382D01*
X1262683Y515354D01*
X1262584Y515311D01*
X1262520Y515290D01*
X1262450Y515276D01*
X1262379D01*
X1262330Y515283D01*
X1262273Y515297D01*
X1262217Y515325D01*
X1262146Y515368D01*
X1262083Y515417D01*
X1260008Y517492D01*
X1260001Y517499D01*
X1259994Y517506D01*
X1259965Y517549D01*
X1259923Y517619D01*
X1259881Y517704D01*
X1259859Y517810D01*
X1259866Y517916D01*
X1259909Y518043D01*
X1259951Y518099D01*
X1260001Y518163D01*
X1264673Y522836D01*
X1264680Y522843D01*
X1264694Y522857D01*
X1264723Y522871D01*
X1264765Y522899D01*
X1264871Y522949D01*
X1264934Y522970D01*
X1265012Y522977D01*
X1265026D01*
X1265047Y522970D01*
D02*
G37*
G36*
X1252900Y535131D02*
X1252949Y535125D01*
X1253069Y535089D01*
X1253119Y535054D01*
X1253182Y535005D01*
X1253189Y534997D01*
X1253203Y534983D01*
X1253224Y534948D01*
X1253253Y534906D01*
X1253274Y534856D01*
X1253295Y534793D01*
X1253316Y534715D01*
Y534630D01*
X1252646Y531362D01*
X1255921Y532026D01*
X1255963D01*
X1255998Y532019D01*
X1256055D01*
X1256168Y531976D01*
X1256224Y531948D01*
X1256288Y531899D01*
X1256295Y531892D01*
X1256309Y531878D01*
X1256330Y531842D01*
X1256351Y531807D01*
X1256401Y531701D01*
X1256422Y531638D01*
X1256429Y531560D01*
Y531546D01*
X1256422Y531525D01*
Y531482D01*
X1256415Y531433D01*
X1256373Y531320D01*
X1256337Y531270D01*
X1256295Y531214D01*
X1256288Y531207D01*
X1256281Y531200D01*
X1256231Y531165D01*
X1256133Y531122D01*
X1256076Y531094D01*
X1256005Y531080D01*
X1252377Y530416D01*
X1250062Y528101D01*
X1250055Y528094D01*
X1250034Y528073D01*
X1249999Y528052D01*
X1249963Y528031D01*
X1249857Y527967D01*
X1249794Y527960D01*
X1249731Y527953D01*
X1249702D01*
X1249660Y527967D01*
X1249617Y527981D01*
X1249505Y528024D01*
X1249455Y528059D01*
X1249392Y528108D01*
X1249385Y528115D01*
X1249370Y528130D01*
X1249349Y528165D01*
X1249328Y528200D01*
X1249272Y528299D01*
X1249250Y528362D01*
X1249236Y528433D01*
Y528447D01*
Y528461D01*
X1249243Y528497D01*
X1249250Y528546D01*
X1249265Y528602D01*
X1249293Y528659D01*
X1249335Y528715D01*
X1249385Y528779D01*
X1251700Y531094D01*
X1252363Y534708D01*
X1252370Y534715D01*
X1252363Y534736D01*
X1252370Y534771D01*
X1252384Y534814D01*
X1252427Y534913D01*
X1252462Y534962D01*
X1252497Y535011D01*
X1252505Y535019D01*
X1252519Y535033D01*
X1252547Y535047D01*
X1252582Y535068D01*
X1252681Y535110D01*
X1252744Y535131D01*
X1252822Y535139D01*
X1252864D01*
X1252900Y535131D01*
D02*
G37*
G36*
X1300541Y535103D02*
X1300612Y535061D01*
X1300668Y535005D01*
X1302228Y533445D01*
X1302235Y533438D01*
X1302249Y533423D01*
X1302270Y533402D01*
X1302298Y533360D01*
X1302341Y533317D01*
X1302376Y533268D01*
X1302461Y533127D01*
X1302545Y532972D01*
X1302623Y532781D01*
X1302673Y532562D01*
X1302687Y532449D01*
X1302694Y532329D01*
Y532315D01*
Y532301D01*
X1302687Y532223D01*
X1302673Y532096D01*
X1302637Y531948D01*
X1302581Y531779D01*
X1302503Y531588D01*
X1302383Y531398D01*
X1302320Y531306D01*
X1302235Y531221D01*
X1301713Y530699D01*
X1301706Y530692D01*
X1301684Y530671D01*
X1301642Y530628D01*
X1301593Y530593D01*
X1301529Y530544D01*
X1301451Y530494D01*
X1301282Y530395D01*
X1301275Y530388D01*
X1301247Y530374D01*
X1301197Y530353D01*
X1301134Y530332D01*
X1300986Y530297D01*
X1300908Y530289D01*
X1300823D01*
Y530275D01*
X1300837Y530233D01*
X1300844Y530169D01*
X1300858Y530085D01*
Y529986D01*
Y529859D01*
X1300837Y529725D01*
X1300802Y529576D01*
X1300795Y529555D01*
X1300781Y529513D01*
X1300753Y529428D01*
X1300717Y529337D01*
X1300654Y529231D01*
X1300590Y529111D01*
X1300506Y528998D01*
X1300414Y528892D01*
X1299376Y527854D01*
X1299369Y527847D01*
X1299355Y527833D01*
X1299334Y527812D01*
X1299292Y527784D01*
X1299256Y527748D01*
X1299200Y527706D01*
X1299066Y527628D01*
X1298903Y527537D01*
X1298713Y527459D01*
X1298494Y527410D01*
X1298381Y527395D01*
X1298261Y527388D01*
X1298254Y527395D01*
X1298233Y527388D01*
X1298197Y527395D01*
X1298155D01*
X1298028Y527410D01*
X1297880Y527445D01*
X1297703Y527508D01*
X1297513Y527586D01*
X1297329Y527699D01*
X1297238Y527777D01*
X1297146Y527854D01*
X1295332Y529668D01*
X1295325Y529675D01*
X1295318Y529682D01*
X1295289Y529725D01*
X1295247Y529795D01*
X1295205Y529880D01*
X1295184Y529986D01*
X1295191Y530092D01*
X1295233Y530219D01*
X1295275Y530275D01*
X1295325Y530339D01*
X1299997Y535011D01*
X1300004Y535019D01*
X1300011Y535026D01*
X1300054Y535054D01*
X1300125Y535096D01*
X1300209Y535139D01*
X1300308Y535153D01*
X1300421D01*
X1300541Y535103D01*
D02*
G37*
G36*
X1659616Y651197D02*
X1660091Y651171D01*
X1660616Y651122D01*
X1661141Y651071D01*
X1661641Y650972D01*
X1661866Y650922D01*
X1662065Y650847D01*
X1662115Y650822D01*
X1662240Y650772D01*
X1662415Y650672D01*
X1662640Y650547D01*
X1662890Y650372D01*
X1663165Y650122D01*
X1663415Y649847D01*
X1663665Y649522D01*
X1663690Y649472D01*
X1663765Y649347D01*
X1663865Y649147D01*
X1663965Y648897D01*
X1664065Y648572D01*
X1664165Y648222D01*
X1664240Y647822D01*
X1664265Y647373D01*
Y647347D01*
Y647298D01*
Y647223D01*
X1664240Y647122D01*
X1664215Y646823D01*
X1664140Y646473D01*
X1664040Y646073D01*
X1663865Y645623D01*
X1663640Y645198D01*
X1663340Y644798D01*
X1663290Y644748D01*
X1663165Y644648D01*
X1662965Y644473D01*
X1662665Y644273D01*
X1662290Y644048D01*
X1661816Y643848D01*
X1661266Y643673D01*
X1660641Y643548D01*
X1660691Y643523D01*
X1660791Y643448D01*
X1660966Y643348D01*
X1661166Y643198D01*
X1661391Y643049D01*
X1661641Y642849D01*
X1661891Y642624D01*
X1662115Y642399D01*
X1662141Y642374D01*
X1662216Y642274D01*
X1662365Y642124D01*
X1662540Y641899D01*
X1662765Y641574D01*
X1663040Y641199D01*
X1663365Y640724D01*
X1663715Y640174D01*
X1665390Y637500D01*
X1662065D01*
X1660066Y640474D01*
Y640499D01*
X1660016Y640549D01*
X1659966Y640624D01*
X1659891Y640724D01*
X1659716Y640999D01*
X1659491Y641324D01*
X1659241Y641674D01*
X1658991Y641999D01*
X1658766Y642299D01*
X1658666Y642399D01*
X1658591Y642499D01*
X1658566Y642524D01*
X1658516Y642574D01*
X1658441Y642649D01*
X1658342Y642724D01*
X1658091Y642924D01*
X1657942Y642999D01*
X1657767Y643074D01*
X1657742D01*
X1657692Y643099D01*
X1657567Y643124D01*
X1657417Y643148D01*
X1657217Y643174D01*
X1656992Y643198D01*
X1656692Y643223D01*
X1655792D01*
Y637500D01*
X1653043D01*
Y651221D01*
X1659416D01*
X1659616Y651197D01*
D02*
G37*
G36*
X1638772Y637500D02*
X1635747D01*
X1634548Y640599D01*
X1629049D01*
X1627924Y637500D01*
X1625000D01*
X1630349Y651221D01*
X1633273D01*
X1638772Y637500D01*
D02*
G37*
G36*
X1308326Y527191D02*
X1308362Y527184D01*
X1308411Y527177D01*
X1308517Y527127D01*
X1308566Y527092D01*
X1308623Y527050D01*
X1308630Y527043D01*
X1308644Y527028D01*
X1308665Y526993D01*
X1308693Y526965D01*
X1308743Y526859D01*
X1308757Y526802D01*
X1308771Y526732D01*
Y526718D01*
Y526704D01*
Y526661D01*
X1308764Y526612D01*
X1308743Y526562D01*
X1308722Y526499D01*
X1308679Y526442D01*
X1308630Y526379D01*
X1304741Y522490D01*
X1304734Y522483D01*
X1304705Y522454D01*
X1304677Y522412D01*
X1304642Y522363D01*
X1304599Y522292D01*
X1304571Y522222D01*
X1304543Y522137D01*
X1304536Y522045D01*
X1304543Y522024D01*
Y521968D01*
X1304564Y521890D01*
X1304585Y521798D01*
X1304592Y521791D01*
X1304607Y521763D01*
X1304628Y521727D01*
X1304649Y521692D01*
X1304656Y521685D01*
X1304677Y521664D01*
X1304727Y521600D01*
X1305764Y520563D01*
X1305771Y520556D01*
X1305792Y520535D01*
X1305835Y520506D01*
X1305884Y520471D01*
X1305948Y520436D01*
X1306018Y520407D01*
X1306103Y520379D01*
X1306195Y520372D01*
X1306237D01*
X1306286Y520379D01*
X1306357Y520393D01*
X1306421Y520415D01*
X1306498Y520450D01*
X1306583Y520506D01*
X1306661Y520570D01*
X1310550Y524459D01*
X1310557Y524466D01*
X1310571Y524480D01*
X1310599Y524494D01*
X1310642Y524523D01*
X1310748Y524572D01*
X1310811Y524593D01*
X1310882Y524607D01*
X1310896D01*
X1310917Y524600D01*
X1310952Y524593D01*
X1311002Y524586D01*
X1311115Y524530D01*
X1311164Y524494D01*
X1311220Y524452D01*
X1311228Y524445D01*
X1311242Y524431D01*
X1311256Y524403D01*
X1311291Y524367D01*
X1311333Y524268D01*
X1311355Y524205D01*
X1311362Y524142D01*
Y524127D01*
Y524113D01*
Y524071D01*
X1311355Y524021D01*
X1311333Y523972D01*
X1311312Y523909D01*
X1311270Y523852D01*
X1311220Y523788D01*
X1307331Y519899D01*
X1307324Y519892D01*
X1307310Y519878D01*
X1307289Y519857D01*
X1307247Y519829D01*
X1307211Y519793D01*
X1307155Y519751D01*
X1307021Y519674D01*
X1306858Y519582D01*
X1306668Y519504D01*
X1306449Y519455D01*
X1306336Y519440D01*
X1306216Y519434D01*
X1306209Y519440D01*
X1306188Y519434D01*
X1306152Y519440D01*
X1306110D01*
X1305983Y519455D01*
X1305835Y519490D01*
X1305658Y519553D01*
X1305468Y519631D01*
X1305284Y519744D01*
X1305192Y519822D01*
X1305101Y519899D01*
X1304063Y520937D01*
X1304056Y520944D01*
X1304042Y520958D01*
X1304021Y520979D01*
X1303992Y521022D01*
X1303957Y521057D01*
X1303922Y521106D01*
X1303844Y521240D01*
X1303752Y521403D01*
X1303682Y521586D01*
X1303625Y521798D01*
X1303604Y521918D01*
X1303597Y522038D01*
X1303604Y522045D01*
X1303597Y522066D01*
X1303604Y522102D01*
Y522144D01*
X1303618Y522271D01*
X1303654Y522419D01*
X1303710Y522603D01*
X1303788Y522793D01*
X1303908Y522984D01*
X1303985Y523076D01*
X1304063Y523167D01*
X1307952Y527057D01*
X1307959Y527064D01*
X1307973Y527078D01*
X1308002Y527092D01*
X1308044Y527120D01*
X1308150Y527170D01*
X1308214Y527191D01*
X1308291Y527198D01*
X1308305D01*
X1308326Y527191D01*
D02*
G37*
G36*
X1312738Y522906D02*
X1312809Y522864D01*
X1312865Y522807D01*
X1314947Y520725D01*
X1314954Y520718D01*
X1314968Y520704D01*
X1314990Y520669D01*
X1315011Y520633D01*
X1315032Y520584D01*
X1315060Y520527D01*
X1315074Y520457D01*
Y520386D01*
Y520372D01*
Y520358D01*
X1315067Y520323D01*
X1315060Y520273D01*
X1315025Y520168D01*
X1314990Y520118D01*
X1314947Y520062D01*
X1314940Y520055D01*
X1314926Y520041D01*
X1314898Y520026D01*
X1314870Y519998D01*
X1314771Y519956D01*
X1314707Y519935D01*
X1314637Y519921D01*
X1314630Y519913D01*
X1314608Y519921D01*
X1314566D01*
X1314531Y519928D01*
X1314474Y519942D01*
X1314411Y519963D01*
X1314347Y520012D01*
X1314284Y520062D01*
X1312540Y521805D01*
X1311129Y520393D01*
X1312350Y519172D01*
X1312357Y519165D01*
X1312371Y519151D01*
X1312392Y519116D01*
X1312413Y519081D01*
X1312435Y519031D01*
X1312463Y518975D01*
X1312477Y518904D01*
Y518834D01*
Y518819D01*
Y518805D01*
Y518763D01*
X1312470Y518713D01*
X1312435Y518608D01*
X1312399Y518558D01*
X1312357Y518502D01*
X1312350Y518495D01*
X1312336Y518481D01*
X1312307Y518466D01*
X1312279Y518438D01*
X1312180Y518396D01*
X1312117Y518375D01*
X1312046Y518361D01*
X1311976D01*
X1311926Y518368D01*
X1311870Y518382D01*
X1311813Y518410D01*
X1311743Y518452D01*
X1311679Y518502D01*
X1310458Y519723D01*
X1308531Y517796D01*
X1310275Y516053D01*
X1310282Y516045D01*
X1310296Y516031D01*
X1310317Y515996D01*
X1310338Y515961D01*
X1310359Y515911D01*
X1310388Y515855D01*
X1310402Y515784D01*
Y515714D01*
Y515700D01*
Y515685D01*
X1310395Y515650D01*
X1310388Y515601D01*
X1310352Y515495D01*
X1310317Y515445D01*
X1310275Y515389D01*
X1310267Y515382D01*
X1310253Y515368D01*
X1310225Y515354D01*
X1310197Y515325D01*
X1310098Y515283D01*
X1310035Y515262D01*
X1309964Y515248D01*
X1309957Y515241D01*
X1309936Y515248D01*
X1309893D01*
X1309858Y515255D01*
X1309802Y515269D01*
X1309738Y515290D01*
X1309675Y515340D01*
X1309611Y515389D01*
X1307529Y517471D01*
X1307522Y517478D01*
X1307515Y517485D01*
X1307487Y517528D01*
X1307437Y517591D01*
X1307402Y517683D01*
X1307374Y517782D01*
X1307381Y517888D01*
X1307416Y518008D01*
X1307458Y518064D01*
X1307508Y518128D01*
X1312195Y522814D01*
X1312202Y522822D01*
X1312209Y522829D01*
X1312251Y522857D01*
X1312321Y522899D01*
X1312406Y522942D01*
X1312505Y522956D01*
X1312618D01*
X1312738Y522906D01*
D02*
G37*
G36*
X1304614Y530904D02*
X1304649Y530896D01*
X1304698Y530889D01*
X1304804Y530840D01*
X1304854Y530805D01*
X1304910Y530762D01*
X1304917Y530755D01*
X1304931Y530741D01*
X1304953Y530706D01*
X1304981Y530678D01*
X1305030Y530572D01*
X1305044Y530515D01*
X1305058Y530445D01*
Y530431D01*
Y530416D01*
Y530374D01*
X1305051Y530325D01*
X1305030Y530275D01*
X1305009Y530212D01*
X1304967Y530155D01*
X1304917Y530092D01*
X1300576Y525751D01*
X1302313Y524014D01*
X1302320Y524007D01*
X1302334Y523993D01*
X1302355Y523958D01*
X1302376Y523923D01*
X1302397Y523873D01*
X1302426Y523817D01*
X1302440Y523746D01*
Y523676D01*
Y523661D01*
Y523647D01*
Y523605D01*
X1302433Y523556D01*
X1302397Y523450D01*
X1302362Y523400D01*
X1302320Y523344D01*
X1302313Y523337D01*
X1302305Y523330D01*
X1302277Y523316D01*
X1302249Y523287D01*
X1302150Y523245D01*
X1302087Y523224D01*
X1302016Y523210D01*
X1301946D01*
X1301896Y523217D01*
X1301840Y523231D01*
X1301783Y523259D01*
X1301713Y523302D01*
X1301649Y523351D01*
X1299574Y525426D01*
X1299567Y525433D01*
X1299560Y525440D01*
X1299532Y525483D01*
X1299489Y525553D01*
X1299447Y525638D01*
X1299426Y525744D01*
X1299433Y525850D01*
X1299475Y525977D01*
X1299517Y526033D01*
X1299567Y526097D01*
X1304240Y530769D01*
X1304247Y530776D01*
X1304261Y530791D01*
X1304289Y530805D01*
X1304331Y530833D01*
X1304437Y530882D01*
X1304501Y530904D01*
X1304578Y530910D01*
X1304592D01*
X1304614Y530904D01*
D02*
G37*
G36*
X1357893Y534687D02*
X1357935D01*
X1358062Y534673D01*
X1358210Y534637D01*
X1358387Y534574D01*
X1358577Y534496D01*
X1358761Y534383D01*
X1358860Y534313D01*
X1358944Y534228D01*
X1360766Y532407D01*
X1360773Y532400D01*
X1360787Y532386D01*
X1360808Y532351D01*
X1360829Y532315D01*
X1360850Y532266D01*
X1360878Y532209D01*
X1360892Y532139D01*
Y532068D01*
Y532054D01*
Y532040D01*
X1360885Y532005D01*
X1360878Y531955D01*
X1360843Y531849D01*
X1360808Y531800D01*
X1360766Y531744D01*
X1360758Y531736D01*
X1360751Y531729D01*
X1360723Y531715D01*
X1360695Y531687D01*
X1360596Y531645D01*
X1360533Y531623D01*
X1360462Y531609D01*
X1360455Y531602D01*
X1360434Y531609D01*
X1360349D01*
X1360293Y531623D01*
X1360236Y531652D01*
X1360166Y531694D01*
X1360102Y531744D01*
X1358281Y533564D01*
X1358274Y533572D01*
X1358253Y533593D01*
X1358210Y533621D01*
X1358168Y533663D01*
X1358048Y533727D01*
X1357977Y533755D01*
X1357907Y533769D01*
X1357900Y533762D01*
X1357879Y533769D01*
X1357794Y533755D01*
X1357695Y533727D01*
X1357596Y533699D01*
X1357589Y533692D01*
X1357568Y533685D01*
X1357533Y533663D01*
X1357490Y533635D01*
X1357483Y533628D01*
X1357462Y533607D01*
X1357427Y533586D01*
X1357399Y533558D01*
X1354286Y530445D01*
X1354279Y530438D01*
X1354250Y530409D01*
X1354222Y530367D01*
X1354187Y530318D01*
X1354145Y530247D01*
X1354116Y530177D01*
X1354088Y530092D01*
X1354081Y530000D01*
X1354088Y529979D01*
Y529922D01*
X1354109Y529845D01*
X1354131Y529753D01*
X1354138Y529746D01*
X1354152Y529718D01*
X1354173Y529682D01*
X1354194Y529647D01*
X1354201Y529640D01*
X1354222Y529619D01*
X1354272Y529555D01*
X1355754Y528073D01*
X1357681Y530000D01*
X1357497Y530183D01*
X1357490Y530191D01*
X1357469Y530212D01*
X1357448Y530247D01*
X1357420Y530289D01*
X1357370Y530395D01*
X1357349Y530459D01*
X1357342Y530522D01*
Y530536D01*
X1357349Y530558D01*
X1357356Y530593D01*
X1357370Y530635D01*
X1357420Y530755D01*
X1357455Y530805D01*
X1357497Y530861D01*
X1357504Y530868D01*
X1357519Y530882D01*
X1357547Y530896D01*
X1357582Y530918D01*
X1357667Y530960D01*
X1357730Y530981D01*
X1357801Y530995D01*
X1357815D01*
X1357836Y531002D01*
X1357872Y530995D01*
X1357921Y530988D01*
X1357977Y530974D01*
X1358041Y530953D01*
X1358104Y530904D01*
X1358168Y530854D01*
X1358690Y530332D01*
X1358697Y530325D01*
X1358704Y530318D01*
X1358733Y530275D01*
X1358782Y530212D01*
X1358817Y530120D01*
X1358839Y530028D01*
X1358831Y529908D01*
X1358789Y529795D01*
X1358747Y529725D01*
X1358690Y529668D01*
X1356093Y527071D01*
X1356079Y527057D01*
X1356036Y527028D01*
X1355973Y526979D01*
X1355888Y526951D01*
X1355789Y526922D01*
X1355669Y526930D01*
X1355556Y526972D01*
X1355493Y527021D01*
X1355429Y527071D01*
X1353608Y528892D01*
X1353601Y528899D01*
X1353587Y528913D01*
X1353566Y528934D01*
X1353538Y528977D01*
X1353502Y529012D01*
X1353467Y529061D01*
X1353389Y529195D01*
X1353298Y529358D01*
X1353227Y529541D01*
X1353170Y529753D01*
X1353149Y529873D01*
X1353142Y529993D01*
X1353149Y530000D01*
X1353142Y530021D01*
X1353149Y530056D01*
Y530099D01*
X1353163Y530226D01*
X1353199Y530374D01*
X1353255Y530558D01*
X1353333Y530748D01*
X1353453Y530939D01*
X1353530Y531031D01*
X1353608Y531122D01*
X1356721Y534235D01*
X1356728Y534242D01*
X1356742Y534256D01*
X1356763Y534277D01*
X1356806Y534306D01*
X1356848Y534348D01*
X1356897Y534383D01*
X1357032Y534461D01*
X1357194Y534553D01*
X1357377Y534623D01*
X1357596Y534673D01*
X1357709Y534687D01*
X1357829Y534694D01*
X1357857D01*
X1357893Y534687D01*
D02*
G37*
G36*
X1708878Y620000D02*
X1706079D01*
X1700556Y628948D01*
Y620000D01*
X1697981D01*
Y633722D01*
X1700656D01*
X1706279Y624549D01*
Y633722D01*
X1708878D01*
Y620000D01*
D02*
G37*
G36*
X1735522D02*
X1732722D01*
X1727199Y628948D01*
Y620000D01*
X1724624D01*
Y633722D01*
X1727299D01*
X1732922Y624549D01*
Y633722D01*
X1735522D01*
Y620000D01*
D02*
G37*
G36*
X1631848Y633946D02*
X1632048Y633921D01*
X1632298Y633896D01*
X1632573Y633847D01*
X1632873Y633797D01*
X1633523Y633596D01*
X1633873Y633497D01*
X1634223Y633347D01*
X1634573Y633172D01*
X1634897Y632972D01*
X1635222Y632747D01*
X1635522Y632472D01*
X1635572Y632422D01*
X1635672Y632297D01*
X1635847Y632097D01*
X1636047Y631822D01*
X1636272Y631447D01*
X1636497Y631022D01*
X1636722Y630497D01*
X1636922Y629922D01*
X1634173Y629273D01*
Y629298D01*
Y629323D01*
X1634123Y629448D01*
X1634048Y629647D01*
X1633973Y629897D01*
X1633823Y630147D01*
X1633648Y630422D01*
X1633423Y630697D01*
X1633148Y630947D01*
X1633123Y630972D01*
X1633023Y631047D01*
X1632848Y631147D01*
X1632623Y631272D01*
X1632348Y631372D01*
X1632023Y631472D01*
X1631673Y631547D01*
X1631273Y631572D01*
X1631123D01*
X1631024Y631547D01*
X1630748Y631522D01*
X1630399Y631447D01*
X1629999Y631297D01*
X1629599Y631097D01*
X1629174Y630847D01*
X1628974Y630672D01*
X1628799Y630472D01*
X1628749Y630422D01*
X1628724Y630347D01*
X1628649Y630272D01*
X1628574Y630147D01*
X1628499Y629997D01*
X1628424Y629823D01*
X1628324Y629622D01*
X1628224Y629398D01*
X1628149Y629123D01*
X1628074Y628848D01*
X1627999Y628523D01*
X1627949Y628173D01*
X1627899Y627798D01*
X1627849Y627373D01*
Y626923D01*
Y626898D01*
Y626798D01*
Y626673D01*
X1627874Y626498D01*
Y626298D01*
X1627899Y626049D01*
X1627974Y625499D01*
X1628074Y624874D01*
X1628249Y624274D01*
X1628474Y623699D01*
X1628624Y623449D01*
X1628774Y623224D01*
X1628824Y623174D01*
X1628949Y623049D01*
X1629149Y622874D01*
X1629449Y622674D01*
X1629799Y622474D01*
X1630199Y622299D01*
X1630699Y622174D01*
X1630948Y622150D01*
X1631223Y622124D01*
X1631398D01*
X1631623Y622174D01*
X1631873Y622224D01*
X1632173Y622299D01*
X1632498Y622424D01*
X1632823Y622599D01*
X1633123Y622824D01*
X1633148Y622849D01*
X1633248Y622949D01*
X1633398Y623124D01*
X1633573Y623374D01*
X1633748Y623674D01*
X1633948Y624049D01*
X1634123Y624524D01*
X1634273Y625049D01*
X1636972Y624199D01*
Y624174D01*
X1636947Y624099D01*
X1636897Y623974D01*
X1636847Y623824D01*
X1636772Y623649D01*
X1636697Y623424D01*
X1636472Y622949D01*
X1636197Y622399D01*
X1635822Y621850D01*
X1635397Y621300D01*
X1635172Y621075D01*
X1634897Y620850D01*
X1634872D01*
X1634823Y620800D01*
X1634747Y620750D01*
X1634648Y620675D01*
X1634498Y620600D01*
X1634323Y620500D01*
X1634123Y620425D01*
X1633898Y620325D01*
X1633648Y620225D01*
X1633373Y620125D01*
X1632748Y619950D01*
X1632048Y619825D01*
X1631648Y619800D01*
X1631248Y619775D01*
X1631123D01*
X1630999Y619800D01*
X1630798D01*
X1630574Y619825D01*
X1630299Y619875D01*
X1629999Y619925D01*
X1629674Y620000D01*
X1629324Y620100D01*
X1628949Y620225D01*
X1628574Y620375D01*
X1628199Y620550D01*
X1627824Y620775D01*
X1627449Y621025D01*
X1627099Y621300D01*
X1626750Y621625D01*
X1626725Y621650D01*
X1626675Y621725D01*
X1626600Y621824D01*
X1626475Y621974D01*
X1626350Y622150D01*
X1626200Y622399D01*
X1626050Y622649D01*
X1625875Y622974D01*
X1625725Y623324D01*
X1625550Y623699D01*
X1625400Y624124D01*
X1625275Y624574D01*
X1625150Y625074D01*
X1625075Y625599D01*
X1625025Y626148D01*
X1625000Y626748D01*
Y626798D01*
Y626898D01*
Y627073D01*
X1625025Y627323D01*
X1625050Y627598D01*
X1625100Y627923D01*
X1625150Y628298D01*
X1625225Y628698D01*
X1625300Y629123D01*
X1625425Y629548D01*
X1625575Y629997D01*
X1625750Y630447D01*
X1625950Y630872D01*
X1626175Y631297D01*
X1626450Y631697D01*
X1626750Y632072D01*
X1626774Y632097D01*
X1626824Y632147D01*
X1626924Y632247D01*
X1627074Y632372D01*
X1627249Y632522D01*
X1627474Y632672D01*
X1627724Y632847D01*
X1627999Y633022D01*
X1628324Y633197D01*
X1628674Y633372D01*
X1629049Y633521D01*
X1629474Y633671D01*
X1629924Y633797D01*
X1630399Y633896D01*
X1630898Y633946D01*
X1631423Y633971D01*
X1631673D01*
X1631848Y633946D01*
D02*
G37*
G36*
X1647869Y611397D02*
X1640446D01*
Y608348D01*
X1647344D01*
Y606048D01*
X1640446D01*
Y602299D01*
X1648119D01*
Y600000D01*
X1637697D01*
Y613722D01*
X1647869D01*
Y611397D01*
D02*
G37*
G36*
X1635897D02*
X1631823D01*
Y600000D01*
X1629049D01*
Y611397D01*
X1624975D01*
Y613722D01*
X1635897D01*
Y611397D01*
D02*
G37*
G36*
X1667489Y620000D02*
X1664915D01*
Y630797D01*
X1662166Y620000D01*
X1659491D01*
X1656792Y630797D01*
Y620000D01*
X1654218D01*
Y633722D01*
X1658367D01*
X1660841Y624349D01*
X1663315Y633722D01*
X1667489D01*
Y620000D01*
D02*
G37*
G36*
X1370238Y522906D02*
X1370309Y522864D01*
X1370365Y522807D01*
X1372447Y520725D01*
X1372454Y520718D01*
X1372468Y520704D01*
X1372490Y520669D01*
X1372511Y520633D01*
X1372532Y520584D01*
X1372560Y520527D01*
X1372574Y520457D01*
Y520386D01*
Y520372D01*
Y520358D01*
X1372567Y520323D01*
X1372560Y520273D01*
X1372525Y520168D01*
X1372490Y520118D01*
X1372447Y520062D01*
X1372440Y520055D01*
X1372426Y520041D01*
X1372398Y520026D01*
X1372370Y519998D01*
X1372271Y519956D01*
X1372207Y519935D01*
X1372137Y519921D01*
X1372130Y519913D01*
X1372108Y519921D01*
X1372066D01*
X1372031Y519928D01*
X1371974Y519942D01*
X1371911Y519963D01*
X1371847Y520012D01*
X1371784Y520062D01*
X1370040Y521805D01*
X1368629Y520393D01*
X1369850Y519172D01*
X1369857Y519165D01*
X1369871Y519151D01*
X1369892Y519116D01*
X1369913Y519081D01*
X1369934Y519031D01*
X1369963Y518975D01*
X1369977Y518904D01*
Y518834D01*
Y518819D01*
Y518805D01*
Y518763D01*
X1369970Y518713D01*
X1369934Y518608D01*
X1369899Y518558D01*
X1369857Y518502D01*
X1369850Y518495D01*
X1369836Y518481D01*
X1369807Y518466D01*
X1369779Y518438D01*
X1369680Y518396D01*
X1369617Y518375D01*
X1369546Y518361D01*
X1369476D01*
X1369426Y518368D01*
X1369370Y518382D01*
X1369313Y518410D01*
X1369243Y518452D01*
X1369179Y518502D01*
X1367958Y519723D01*
X1366031Y517796D01*
X1367775Y516053D01*
X1367782Y516045D01*
X1367796Y516031D01*
X1367817Y515996D01*
X1367838Y515961D01*
X1367859Y515911D01*
X1367888Y515855D01*
X1367902Y515784D01*
Y515714D01*
Y515700D01*
Y515685D01*
X1367894Y515650D01*
X1367888Y515601D01*
X1367852Y515495D01*
X1367817Y515445D01*
X1367775Y515389D01*
X1367767Y515382D01*
X1367753Y515368D01*
X1367725Y515354D01*
X1367697Y515325D01*
X1367598Y515283D01*
X1367535Y515262D01*
X1367464Y515248D01*
X1367457Y515241D01*
X1367436Y515248D01*
X1367393D01*
X1367358Y515255D01*
X1367302Y515269D01*
X1367238Y515290D01*
X1367175Y515340D01*
X1367111Y515389D01*
X1365029Y517471D01*
X1365022Y517478D01*
X1365015Y517485D01*
X1364986Y517528D01*
X1364937Y517591D01*
X1364902Y517683D01*
X1364874Y517782D01*
X1364881Y517888D01*
X1364916Y518008D01*
X1364958Y518064D01*
X1365008Y518128D01*
X1369694Y522814D01*
X1369702Y522822D01*
X1369709Y522829D01*
X1369751Y522857D01*
X1369821Y522899D01*
X1369906Y522942D01*
X1370005Y522956D01*
X1370118D01*
X1370238Y522906D01*
D02*
G37*
G36*
X1366525Y526619D02*
X1366596Y526577D01*
X1366652Y526520D01*
X1368734Y524438D01*
X1368742Y524431D01*
X1368756Y524417D01*
X1368777Y524381D01*
X1368798Y524346D01*
X1368819Y524297D01*
X1368847Y524240D01*
X1368862Y524170D01*
Y524099D01*
Y524085D01*
Y524071D01*
X1368855Y524036D01*
X1368847Y523986D01*
X1368812Y523880D01*
X1368777Y523831D01*
X1368734Y523774D01*
X1368727Y523767D01*
X1368713Y523753D01*
X1368685Y523739D01*
X1368657Y523711D01*
X1368558Y523669D01*
X1368495Y523647D01*
X1368424Y523633D01*
X1368417Y523626D01*
X1368396Y523633D01*
X1368353D01*
X1368318Y523640D01*
X1368262Y523654D01*
X1368198Y523676D01*
X1368134Y523725D01*
X1368071Y523774D01*
X1366328Y525518D01*
X1364916Y524106D01*
X1366137Y522885D01*
X1366144Y522878D01*
X1366158Y522864D01*
X1366179Y522829D01*
X1366201Y522793D01*
X1366222Y522744D01*
X1366250Y522687D01*
X1366264Y522617D01*
Y522546D01*
Y522532D01*
Y522518D01*
Y522476D01*
X1366257Y522426D01*
X1366222Y522320D01*
X1366186Y522271D01*
X1366144Y522215D01*
X1366137Y522207D01*
X1366123Y522193D01*
X1366095Y522179D01*
X1366066Y522151D01*
X1365968Y522109D01*
X1365904Y522087D01*
X1365833Y522073D01*
X1365763D01*
X1365714Y522080D01*
X1365657Y522094D01*
X1365600Y522123D01*
X1365530Y522165D01*
X1365466Y522215D01*
X1364245Y523436D01*
X1362318Y521509D01*
X1364062Y519765D01*
X1364069Y519758D01*
X1364083Y519744D01*
X1364104Y519709D01*
X1364125Y519674D01*
X1364147Y519624D01*
X1364175Y519568D01*
X1364189Y519497D01*
Y519426D01*
Y519412D01*
Y519398D01*
X1364182Y519363D01*
X1364175Y519314D01*
X1364139Y519208D01*
X1364104Y519158D01*
X1364062Y519102D01*
X1364055Y519095D01*
X1364041Y519081D01*
X1364012Y519066D01*
X1363984Y519038D01*
X1363885Y518996D01*
X1363822Y518975D01*
X1363751Y518960D01*
X1363744Y518954D01*
X1363723Y518960D01*
X1363681D01*
X1363645Y518968D01*
X1363589Y518982D01*
X1363525Y519003D01*
X1363462Y519052D01*
X1363398Y519102D01*
X1361316Y521184D01*
X1361309Y521191D01*
X1361302Y521198D01*
X1361274Y521240D01*
X1361224Y521304D01*
X1361189Y521396D01*
X1361161Y521494D01*
X1361168Y521600D01*
X1361203Y521720D01*
X1361245Y521777D01*
X1361295Y521840D01*
X1365982Y526527D01*
X1365989Y526534D01*
X1365996Y526541D01*
X1366038Y526570D01*
X1366109Y526612D01*
X1366193Y526654D01*
X1366292Y526668D01*
X1366405D01*
X1366525Y526619D01*
D02*
G37*
G36*
X1362283Y530861D02*
X1362354Y530819D01*
X1362410Y530762D01*
X1364224Y528948D01*
X1364231Y528941D01*
X1364245Y528927D01*
X1364274Y528899D01*
X1364295Y528864D01*
X1364337Y528821D01*
X1364379Y528765D01*
X1364457Y528631D01*
X1364549Y528468D01*
X1364626Y528278D01*
X1364669Y528066D01*
X1364683Y527953D01*
X1364690Y527833D01*
Y527819D01*
Y527805D01*
X1364683Y527727D01*
X1364669Y527600D01*
X1364633Y527452D01*
X1364577Y527282D01*
X1364499Y527092D01*
X1364379Y526901D01*
X1364316Y526810D01*
X1364231Y526725D01*
X1363194Y525687D01*
X1363186Y525680D01*
X1363172Y525666D01*
X1363151Y525645D01*
X1363109Y525617D01*
X1363074Y525581D01*
X1363017Y525539D01*
X1362883Y525461D01*
X1362721Y525370D01*
X1362530Y525292D01*
X1362311Y525243D01*
X1362198Y525229D01*
X1362078Y525221D01*
X1362071Y525229D01*
X1362050Y525221D01*
X1362015Y525229D01*
X1361973D01*
X1361845Y525243D01*
X1361697Y525278D01*
X1361521Y525341D01*
X1361330Y525419D01*
X1361147Y525532D01*
X1361055Y525610D01*
X1360963Y525687D01*
X1360991Y525659D01*
X1360462Y523040D01*
X1360427Y522977D01*
X1360335Y522829D01*
X1360328Y522822D01*
X1360314Y522807D01*
X1360278Y522786D01*
X1360243Y522765D01*
X1360137Y522716D01*
X1360074Y522695D01*
X1359989D01*
X1359968Y522701D01*
X1359933Y522709D01*
X1359883Y522716D01*
X1359770Y522758D01*
X1359714Y522800D01*
X1359657Y522843D01*
X1359643Y522857D01*
X1359615Y522885D01*
X1359580Y522934D01*
X1359537Y523005D01*
X1359530Y523026D01*
Y523083D01*
Y523167D01*
X1359537Y523273D01*
X1360257Y526393D01*
X1359488Y527163D01*
X1357744Y525419D01*
X1357737Y525412D01*
X1357716Y525391D01*
X1357681Y525370D01*
X1357646Y525349D01*
X1357540Y525285D01*
X1357476Y525278D01*
X1357413Y525271D01*
X1357399D01*
X1357377Y525278D01*
X1357342Y525285D01*
X1357300Y525299D01*
X1357187Y525341D01*
X1357130Y525384D01*
X1357074Y525426D01*
X1357067Y525433D01*
X1357053Y525447D01*
X1357032Y525483D01*
X1357010Y525518D01*
X1356954Y525617D01*
X1356933Y525680D01*
X1356919Y525751D01*
Y525765D01*
Y525779D01*
X1356926Y525814D01*
X1356933Y525864D01*
X1356947Y525920D01*
X1356975Y525977D01*
X1357017Y526033D01*
X1357067Y526097D01*
X1361740Y530769D01*
X1361747Y530776D01*
X1361754Y530784D01*
X1361796Y530812D01*
X1361867Y530854D01*
X1361951Y530896D01*
X1362050Y530910D01*
X1362163D01*
X1362283Y530861D01*
D02*
G37*
G36*
X1373810Y519236D02*
X1373859Y519229D01*
X1373958Y519186D01*
X1374007Y519151D01*
X1374064Y519109D01*
X1374071Y519102D01*
X1374092Y519081D01*
X1374120Y519038D01*
X1374148Y518982D01*
X1374177Y518911D01*
X1374191Y518826D01*
X1374198Y518735D01*
X1374184Y518636D01*
X1372440Y512954D01*
X1375998Y516511D01*
X1376005Y516518D01*
X1376019Y516532D01*
X1376047Y516547D01*
X1376089Y516575D01*
X1376195Y516624D01*
X1376259Y516645D01*
X1376337Y516652D01*
X1376351D01*
X1376372Y516645D01*
X1376407Y516638D01*
X1376456Y516631D01*
X1376562Y516582D01*
X1376612Y516547D01*
X1376668Y516504D01*
X1376675Y516497D01*
X1376689Y516483D01*
X1376703Y516455D01*
X1376739Y516419D01*
X1376781Y516321D01*
X1376809Y516264D01*
X1376816Y516201D01*
Y516186D01*
X1376823Y516165D01*
X1376816Y516130D01*
X1376809Y516081D01*
X1376795Y516024D01*
X1376767Y515954D01*
X1376725Y515897D01*
X1376675Y515834D01*
X1372031Y511189D01*
X1372024Y511182D01*
X1372010Y511168D01*
X1371974Y511147D01*
X1371932Y511119D01*
X1371826Y511055D01*
X1371749Y511034D01*
X1371678Y511020D01*
X1371501Y511041D01*
X1371494Y511048D01*
X1371459Y511069D01*
X1371410Y511105D01*
X1371353Y511147D01*
X1371346Y511154D01*
X1371318Y511182D01*
X1371297Y511231D01*
X1371268Y511288D01*
X1371233Y511366D01*
X1371219Y511450D01*
Y511549D01*
X1371233Y511662D01*
X1372977Y517316D01*
X1369412Y513751D01*
X1369405Y513744D01*
X1369384Y513723D01*
X1369349Y513702D01*
X1369313Y513681D01*
X1369207Y513617D01*
X1369144Y513610D01*
X1369080Y513603D01*
X1369066D01*
X1369045Y513610D01*
X1369010Y513617D01*
X1368967Y513631D01*
X1368855Y513674D01*
X1368798Y513716D01*
X1368742Y513758D01*
X1368734Y513765D01*
X1368720Y513780D01*
X1368699Y513815D01*
X1368678Y513850D01*
X1368622Y513949D01*
X1368600Y514012D01*
X1368586Y514083D01*
Y514097D01*
Y514111D01*
X1368593Y514147D01*
X1368600Y514196D01*
X1368615Y514253D01*
X1368643Y514309D01*
X1368685Y514366D01*
X1368734Y514429D01*
X1373386Y519081D01*
X1373393Y519088D01*
X1373414Y519109D01*
X1373450Y519130D01*
X1373492Y519158D01*
X1373605Y519215D01*
X1373668Y519236D01*
X1373746Y519243D01*
X1373774D01*
X1373810Y519236D01*
D02*
G37*
%LPC*%
G36*
X1631773Y648022D02*
X1629924Y642924D01*
X1633673D01*
X1631773Y648022D01*
D02*
G37*
G36*
X1693957Y611397D02*
X1690558D01*
Y607923D01*
X1693282D01*
X1693707Y607948D01*
X1694132D01*
X1694532Y607998D01*
X1694882Y608023D01*
X1695032Y608048D01*
X1695132Y608073D01*
X1695157D01*
X1695207Y608098D01*
X1695307Y608148D01*
X1695407Y608223D01*
X1695682Y608398D01*
X1695907Y608648D01*
X1695932Y608673D01*
X1695957Y608723D01*
X1696007Y608823D01*
X1696057Y608948D01*
X1696107Y609098D01*
X1696132Y609273D01*
X1696182Y609473D01*
Y609697D01*
Y609723D01*
Y609823D01*
X1696157Y609947D01*
X1696132Y610097D01*
X1696082Y610272D01*
X1696032Y610472D01*
X1695932Y610647D01*
X1695807Y610822D01*
X1695782Y610847D01*
X1695732Y610897D01*
X1695657Y610972D01*
X1695532Y611047D01*
X1695382Y611147D01*
X1695207Y611222D01*
X1695007Y611297D01*
X1694757Y611347D01*
X1694682D01*
X1694557Y611372D01*
X1694132D01*
X1693957Y611397D01*
D02*
G37*
G36*
X1659191Y648897D02*
X1655792D01*
Y645423D01*
X1658516D01*
X1658941Y645448D01*
X1659366D01*
X1659766Y645498D01*
X1660116Y645523D01*
X1660266Y645548D01*
X1660366Y645573D01*
X1660391D01*
X1660441Y645598D01*
X1660541Y645648D01*
X1660641Y645723D01*
X1660916Y645898D01*
X1661141Y646148D01*
X1661166Y646173D01*
X1661191Y646223D01*
X1661241Y646323D01*
X1661291Y646448D01*
X1661341Y646598D01*
X1661366Y646773D01*
X1661416Y646973D01*
Y647197D01*
Y647223D01*
Y647322D01*
X1661391Y647447D01*
X1661366Y647597D01*
X1661316Y647772D01*
X1661266Y647972D01*
X1661166Y648147D01*
X1661041Y648322D01*
X1661016Y648347D01*
X1660966Y648397D01*
X1660891Y648472D01*
X1660766Y648547D01*
X1660616Y648647D01*
X1660441Y648722D01*
X1660241Y648797D01*
X1659991Y648847D01*
X1659916D01*
X1659791Y648872D01*
X1659366D01*
X1659191Y648897D01*
D02*
G37*
G36*
X1362085Y529760D02*
X1360151Y527826D01*
X1361627Y526351D01*
X1361634Y526344D01*
X1361655Y526323D01*
X1361697Y526294D01*
X1361747Y526259D01*
X1361810Y526224D01*
X1361881Y526195D01*
X1361965Y526167D01*
X1362057Y526160D01*
X1362099D01*
X1362149Y526167D01*
X1362220Y526181D01*
X1362283Y526203D01*
X1362361Y526238D01*
X1362445Y526294D01*
X1362523Y526358D01*
X1363561Y527395D01*
X1363568Y527402D01*
X1363589Y527424D01*
X1363617Y527466D01*
X1363652Y527515D01*
X1363688Y527579D01*
X1363716Y527664D01*
X1363737Y527741D01*
X1363744Y527833D01*
Y527847D01*
Y527875D01*
X1363737Y527925D01*
X1363730Y527988D01*
X1363709Y528052D01*
X1363674Y528130D01*
X1363624Y528207D01*
X1363561Y528285D01*
X1362085Y529760D01*
D02*
G37*
G36*
X1674862Y631397D02*
X1672988D01*
Y627498D01*
X1675062D01*
X1675412Y627523D01*
X1675787Y627548D01*
X1676137Y627573D01*
X1676462Y627623D01*
X1676587Y627673D01*
X1676712Y627698D01*
X1676737D01*
X1676812Y627748D01*
X1676912Y627798D01*
X1677037Y627873D01*
X1677312Y628073D01*
X1677561Y628373D01*
X1677587Y628398D01*
X1677612Y628448D01*
X1677661Y628548D01*
X1677737Y628698D01*
X1677787Y628848D01*
X1677836Y629023D01*
X1677861Y629223D01*
X1677887Y629448D01*
Y629473D01*
Y629573D01*
X1677861Y629723D01*
X1677836Y629897D01*
X1677787Y630072D01*
X1677686Y630297D01*
X1677587Y630497D01*
X1677437Y630697D01*
X1677412Y630722D01*
X1677362Y630772D01*
X1677262Y630872D01*
X1677137Y630972D01*
X1676987Y631072D01*
X1676787Y631172D01*
X1676587Y631247D01*
X1676337Y631297D01*
X1676312D01*
X1676237Y631322D01*
X1676112D01*
X1675912Y631347D01*
X1675637Y631372D01*
X1675287D01*
X1674862Y631397D01*
D02*
G37*
G36*
X1689458Y631572D02*
X1688959D01*
X1688859Y631547D01*
X1688709D01*
X1688534Y631522D01*
X1688134Y631422D01*
X1687709Y631297D01*
X1687234Y631072D01*
X1686784Y630797D01*
X1686559Y630597D01*
X1686359Y630397D01*
Y630372D01*
X1686309Y630347D01*
X1686259Y630272D01*
X1686184Y630172D01*
X1686109Y630047D01*
X1686034Y629897D01*
X1685934Y629723D01*
X1685834Y629523D01*
X1685734Y629298D01*
X1685634Y629023D01*
X1685560Y628748D01*
X1685484Y628423D01*
X1685410Y628073D01*
X1685359Y627698D01*
X1685335Y627298D01*
X1685310Y626873D01*
Y626848D01*
Y626773D01*
Y626648D01*
X1685335Y626498D01*
Y626298D01*
X1685359Y626073D01*
X1685435Y625549D01*
X1685585Y624974D01*
X1685759Y624374D01*
X1686034Y623824D01*
X1686184Y623574D01*
X1686384Y623324D01*
X1686409Y623299D01*
X1686434Y623274D01*
X1686584Y623149D01*
X1686809Y622949D01*
X1687134Y622724D01*
X1687534Y622499D01*
X1688009Y622324D01*
X1688534Y622174D01*
X1688834Y622150D01*
X1689134Y622124D01*
X1689283D01*
X1689409Y622150D01*
X1689559D01*
X1689708Y622199D01*
X1690083Y622274D01*
X1690508Y622424D01*
X1690958Y622624D01*
X1691408Y622924D01*
X1691633Y623124D01*
X1691833Y623324D01*
X1691858Y623349D01*
X1691883Y623374D01*
X1691933Y623449D01*
X1692008Y623549D01*
X1692083Y623674D01*
X1692183Y623824D01*
X1692283Y624024D01*
X1692383Y624224D01*
X1692483Y624449D01*
X1692558Y624724D01*
X1692658Y625024D01*
X1692733Y625349D01*
X1692808Y625699D01*
X1692858Y626073D01*
X1692908Y626473D01*
Y626898D01*
Y626923D01*
Y626998D01*
Y627123D01*
X1692883Y627298D01*
Y627473D01*
X1692858Y627723D01*
X1692783Y628223D01*
X1692658Y628798D01*
X1692483Y629398D01*
X1692233Y629948D01*
X1692058Y630197D01*
X1691883Y630422D01*
Y630447D01*
X1691833Y630472D01*
X1691708Y630597D01*
X1691458Y630797D01*
X1691158Y630997D01*
X1690758Y631197D01*
X1690283Y631397D01*
X1689758Y631522D01*
X1689458Y631572D01*
D02*
G37*
G36*
X1300343Y534002D02*
X1298932Y532590D01*
X1300146Y531376D01*
X1300153Y531369D01*
X1300174Y531348D01*
X1300216Y531320D01*
X1300266Y531285D01*
X1300329Y531249D01*
X1300400Y531221D01*
X1300484Y531193D01*
X1300576Y531186D01*
X1300619D01*
X1300668Y531193D01*
X1300739Y531207D01*
X1300802Y531228D01*
X1300880Y531264D01*
X1300957Y531313D01*
X1301035Y531376D01*
X1301557Y531899D01*
X1301564Y531906D01*
X1301586Y531927D01*
X1301614Y531969D01*
X1301649Y532019D01*
X1301684Y532082D01*
X1301713Y532167D01*
X1301734Y532245D01*
X1301741Y532336D01*
Y532351D01*
Y532379D01*
X1301734Y532428D01*
X1301727Y532492D01*
X1301706Y532555D01*
X1301670Y532633D01*
X1301628Y532703D01*
X1301564Y532781D01*
X1300343Y534002D01*
D02*
G37*
G36*
X1298268Y531927D02*
X1296334Y529993D01*
X1297809Y528518D01*
X1297816Y528511D01*
X1297838Y528489D01*
X1297880Y528461D01*
X1297929Y528426D01*
X1297993Y528391D01*
X1298063Y528362D01*
X1298148Y528334D01*
X1298240Y528327D01*
X1298282D01*
X1298332Y528334D01*
X1298402Y528348D01*
X1298466Y528369D01*
X1298543Y528405D01*
X1298628Y528461D01*
X1298706Y528525D01*
X1299743Y529562D01*
X1299750Y529570D01*
X1299772Y529591D01*
X1299800Y529633D01*
X1299835Y529682D01*
X1299870Y529746D01*
X1299899Y529831D01*
X1299920Y529908D01*
X1299927Y530000D01*
Y530014D01*
Y530042D01*
X1299920Y530092D01*
X1299906Y530148D01*
X1299884Y530212D01*
X1299849Y530289D01*
X1299800Y530367D01*
X1299736Y530445D01*
X1298268Y531927D01*
D02*
G37*
G36*
X1268795Y517881D02*
X1268788Y517873D01*
X1268767Y517881D01*
X1268682Y517867D01*
X1268584Y517838D01*
X1268485Y517810D01*
X1268478Y517803D01*
X1268457Y517796D01*
X1268421Y517775D01*
X1268379Y517747D01*
X1268372Y517739D01*
X1268351Y517718D01*
X1268315Y517697D01*
X1268287Y517669D01*
X1265174Y514556D01*
X1265167Y514549D01*
X1265139Y514521D01*
X1265111Y514478D01*
X1265076Y514429D01*
X1265033Y514358D01*
X1265005Y514288D01*
X1264977Y514203D01*
X1264970Y514111D01*
X1264977Y514090D01*
Y514034D01*
X1264998Y513956D01*
X1265019Y513864D01*
X1265026Y513857D01*
X1265040Y513829D01*
X1265061Y513794D01*
X1265083Y513758D01*
X1265090Y513751D01*
X1265111Y513730D01*
X1265160Y513667D01*
X1266198Y512629D01*
X1266205Y512622D01*
X1266226Y512601D01*
X1266268Y512573D01*
X1266318Y512537D01*
X1266381Y512502D01*
X1266452Y512474D01*
X1266537Y512446D01*
X1266628Y512439D01*
X1266671D01*
X1266720Y512446D01*
X1266791Y512460D01*
X1266854Y512481D01*
X1266932Y512516D01*
X1267017Y512573D01*
X1267094Y512636D01*
X1270207Y515749D01*
X1270214Y515756D01*
X1270235Y515777D01*
X1270264Y515820D01*
X1270299Y515869D01*
X1270334Y515932D01*
X1270362Y516017D01*
X1270384Y516095D01*
X1270391Y516186D01*
Y516201D01*
Y516229D01*
X1270384Y516278D01*
X1270377Y516342D01*
X1270355Y516405D01*
X1270320Y516483D01*
X1270271Y516561D01*
X1270207Y516638D01*
X1269169Y517676D01*
X1269163Y517683D01*
X1269141Y517704D01*
X1269099Y517732D01*
X1269057Y517775D01*
X1268937Y517838D01*
X1268866Y517867D01*
X1268795Y517881D01*
D02*
G37*
G36*
X1670927Y590820D02*
X1669949Y587795D01*
X1671895D01*
X1670927Y590820D01*
D02*
G37*
G36*
X1735622Y591608D02*
X1735133D01*
X1735073Y591598D01*
X1734993Y591578D01*
X1734913Y591548D01*
X1734813Y591508D01*
X1734723Y591459D01*
X1734633Y591379D01*
X1734624Y591369D01*
X1734604Y591339D01*
X1734564Y591289D01*
X1734524Y591229D01*
X1734484Y591139D01*
X1734444Y591049D01*
X1734424Y590949D01*
X1734414Y590830D01*
Y586717D01*
Y586707D01*
Y586667D01*
X1734424Y586607D01*
X1734444Y586527D01*
X1734464Y586447D01*
X1734504Y586348D01*
X1734564Y586258D01*
X1734633Y586168D01*
X1734644Y586158D01*
X1734673Y586128D01*
X1734723Y586098D01*
X1734793Y586058D01*
X1734873Y586008D01*
X1734963Y585978D01*
X1735063Y585948D01*
X1735183Y585938D01*
X1735672D01*
X1735732Y585948D01*
X1735802Y585968D01*
X1735881Y585988D01*
X1735971Y586028D01*
X1736061Y586088D01*
X1736151Y586158D01*
X1736161Y586168D01*
X1736191Y586198D01*
X1736231Y586248D01*
X1736271Y586308D01*
X1736310Y586387D01*
X1736351Y586487D01*
X1736380Y586597D01*
X1736390Y586717D01*
Y590830D01*
Y590840D01*
Y590880D01*
X1736380Y590939D01*
X1736360Y591019D01*
X1736340Y591109D01*
X1736301Y591199D01*
X1736241Y591289D01*
X1736171Y591379D01*
X1736161Y591389D01*
X1736131Y591419D01*
X1736081Y591449D01*
X1736021Y591498D01*
X1735941Y591538D01*
X1735851Y591568D01*
X1735742Y591598D01*
X1735622Y591608D01*
D02*
G37*
G36*
X1700494D02*
X1698987D01*
X1698937Y591598D01*
X1698877D01*
X1698748Y591558D01*
X1698678Y591528D01*
X1698618Y591488D01*
Y591478D01*
X1698598Y591469D01*
X1698548Y591399D01*
X1698498Y591309D01*
X1698448Y591219D01*
Y591209D01*
X1698438Y591189D01*
X1698428Y591149D01*
X1698418Y591099D01*
Y591089D01*
Y591059D01*
X1698408Y591019D01*
Y590979D01*
Y586577D01*
Y586567D01*
Y586527D01*
X1698418Y586477D01*
X1698428Y586418D01*
X1698448Y586338D01*
X1698478Y586268D01*
X1698518Y586188D01*
X1698578Y586118D01*
X1698598Y586108D01*
X1698638Y586068D01*
X1698708Y586028D01*
X1698788Y585978D01*
X1698797D01*
X1698827Y585968D01*
X1698867Y585958D01*
X1698907Y585948D01*
X1698947D01*
X1699027Y585938D01*
X1700534D01*
X1700584Y585948D01*
X1700644Y585958D01*
X1700714Y585978D01*
X1700784Y586008D01*
X1700864Y586048D01*
X1700934Y586108D01*
X1700944Y586118D01*
X1700964Y586138D01*
X1700993Y586178D01*
X1701033Y586238D01*
X1701063Y586298D01*
X1701093Y586377D01*
X1701113Y586477D01*
X1701123Y586577D01*
Y590979D01*
Y590989D01*
Y591019D01*
X1701113Y591069D01*
X1701103Y591129D01*
X1701083Y591199D01*
X1701043Y591279D01*
X1701004Y591349D01*
X1700944Y591419D01*
X1700934Y591428D01*
X1700914Y591449D01*
X1700874Y591478D01*
X1700824Y591518D01*
X1700764Y591548D01*
X1700684Y591578D01*
X1700594Y591598D01*
X1700494Y591608D01*
D02*
G37*
G36*
X1645770Y631572D02*
X1645270D01*
X1645170Y631547D01*
X1645020D01*
X1644845Y631522D01*
X1644445Y631422D01*
X1644020Y631297D01*
X1643545Y631072D01*
X1643095Y630797D01*
X1642870Y630597D01*
X1642670Y630397D01*
Y630372D01*
X1642621Y630347D01*
X1642570Y630272D01*
X1642496Y630172D01*
X1642421Y630047D01*
X1642346Y629897D01*
X1642246Y629723D01*
X1642146Y629523D01*
X1642046Y629298D01*
X1641946Y629023D01*
X1641871Y628748D01*
X1641796Y628423D01*
X1641721Y628073D01*
X1641671Y627698D01*
X1641646Y627298D01*
X1641621Y626873D01*
Y626848D01*
Y626773D01*
Y626648D01*
X1641646Y626498D01*
Y626298D01*
X1641671Y626073D01*
X1641746Y625549D01*
X1641896Y624974D01*
X1642071Y624374D01*
X1642346Y623824D01*
X1642496Y623574D01*
X1642695Y623324D01*
X1642720Y623299D01*
X1642746Y623274D01*
X1642895Y623149D01*
X1643120Y622949D01*
X1643445Y622724D01*
X1643845Y622499D01*
X1644320Y622324D01*
X1644845Y622174D01*
X1645145Y622150D01*
X1645445Y622124D01*
X1645595D01*
X1645720Y622150D01*
X1645870D01*
X1646020Y622199D01*
X1646395Y622274D01*
X1646819Y622424D01*
X1647269Y622624D01*
X1647719Y622924D01*
X1647944Y623124D01*
X1648144Y623324D01*
X1648169Y623349D01*
X1648194Y623374D01*
X1648244Y623449D01*
X1648319Y623549D01*
X1648394Y623674D01*
X1648494Y623824D01*
X1648594Y624024D01*
X1648694Y624224D01*
X1648794Y624449D01*
X1648869Y624724D01*
X1648969Y625024D01*
X1649044Y625349D01*
X1649119Y625699D01*
X1649169Y626073D01*
X1649219Y626473D01*
Y626898D01*
Y626923D01*
Y626998D01*
Y627123D01*
X1649194Y627298D01*
Y627473D01*
X1649169Y627723D01*
X1649094Y628223D01*
X1648969Y628798D01*
X1648794Y629398D01*
X1648544Y629948D01*
X1648369Y630197D01*
X1648194Y630422D01*
Y630447D01*
X1648144Y630472D01*
X1648019Y630597D01*
X1647769Y630797D01*
X1647469Y630997D01*
X1647069Y631197D01*
X1646595Y631397D01*
X1646070Y631522D01*
X1645770Y631572D01*
D02*
G37*
G36*
X1706494Y591608D02*
X1704407D01*
Y588873D01*
X1706534D01*
X1706584Y588883D01*
X1706643Y588893D01*
X1706713Y588913D01*
X1706783Y588943D01*
X1706863Y588983D01*
X1706933Y589043D01*
X1706943Y589053D01*
X1706963Y589073D01*
X1706993Y589113D01*
X1707033Y589173D01*
X1707063Y589232D01*
X1707093Y589312D01*
X1707113Y589412D01*
X1707123Y589512D01*
Y590979D01*
Y590989D01*
Y591019D01*
X1707113Y591069D01*
X1707103Y591129D01*
X1707083Y591199D01*
X1707043Y591279D01*
X1707003Y591349D01*
X1706943Y591419D01*
X1706933Y591428D01*
X1706913Y591449D01*
X1706873Y591478D01*
X1706823Y591518D01*
X1706763Y591548D01*
X1706683Y591578D01*
X1706593Y591598D01*
X1706494Y591608D01*
D02*
G37*
G36*
X1686240D02*
X1684154D01*
Y588873D01*
X1686280D01*
X1686330Y588883D01*
X1686390Y588893D01*
X1686459Y588913D01*
X1686529Y588943D01*
X1686609Y588983D01*
X1686679Y589043D01*
X1686689Y589053D01*
X1686709Y589073D01*
X1686739Y589113D01*
X1686779Y589173D01*
X1686809Y589232D01*
X1686839Y589312D01*
X1686859Y589412D01*
X1686869Y589512D01*
Y590979D01*
Y590989D01*
Y591019D01*
X1686859Y591069D01*
X1686849Y591129D01*
X1686829Y591199D01*
X1686789Y591279D01*
X1686749Y591349D01*
X1686689Y591419D01*
X1686679Y591428D01*
X1686659Y591449D01*
X1686619Y591478D01*
X1686569Y591518D01*
X1686509Y591548D01*
X1686429Y591578D01*
X1686340Y591598D01*
X1686240Y591608D01*
D02*
G37*
%LPD*%
D10*
X991500Y752500D02*
D03*
X1018500D02*
D03*
X989800Y727710D02*
D03*
X1016800D02*
D03*
X1434630Y609600D02*
D03*
X1407630D02*
D03*
X1156500Y787500D02*
D03*
X1183500D02*
D03*
D11*
X1211000Y771500D02*
D03*
Y798500D02*
D03*
D12*
X1166470Y722970D02*
D03*
X1147470D02*
D03*
X1156970Y701970D02*
D03*
X1213500Y682500D02*
D03*
X1194500D02*
D03*
X1204000Y661500D02*
D03*
D13*
X1643380Y737870D02*
D03*
X1612900D02*
D03*
X1209760Y748000D02*
D03*
X1240240D02*
D03*
D14*
X1091000Y713760D02*
D03*
Y744240D02*
D03*
X997500Y671830D02*
D03*
Y702310D02*
D03*
X1067250Y618510D02*
D03*
Y648990D02*
D03*
X1237000Y801240D02*
D03*
Y770760D02*
D03*
X1132500Y762260D02*
D03*
Y792740D02*
D03*
D15*
X1231900Y572135D02*
D03*
Y553085D02*
D03*
X1254760Y572135D02*
D03*
Y553085D02*
D03*
X1282551Y572126D02*
D03*
Y553076D02*
D03*
X1306680Y572126D02*
D03*
Y553076D02*
D03*
X1333500Y572135D02*
D03*
Y553085D02*
D03*
X1357630Y570865D02*
D03*
Y551815D02*
D03*
X1291590Y737235D02*
D03*
Y756285D02*
D03*
X1057500Y757025D02*
D03*
Y737975D02*
D03*
D16*
X1059815Y717550D02*
D03*
X1040765D02*
D03*
D17*
X1103500Y638500D02*
D03*
Y593500D02*
D03*
D18*
X1027430Y687070D02*
D03*
X1060450D02*
D03*
D19*
X1104500Y776500D02*
D03*
Y795500D02*
D03*
X1083500Y786000D02*
D03*
D20*
X1234532Y553720D02*
X1253605D01*
X1581150Y769620D02*
Y790000D01*
X1534160Y722630D02*
X1581150Y769620D01*
X1534160Y712470D02*
Y722630D01*
X1606550Y767080D02*
Y790000D01*
X1559560Y720090D02*
X1606550Y767080D01*
X1559560Y712470D02*
Y720090D01*
X1280160Y572125D02*
Y636270D01*
X1254760Y572135D02*
Y636270D01*
X1327150Y762000D02*
Y790000D01*
X1321435Y756285D02*
X1327150Y762000D01*
X1290320Y756285D02*
X1321435D01*
X1432560Y611670D02*
Y636270D01*
Y611670D02*
X1434630Y609600D01*
X1555750Y770890D02*
Y790000D01*
X1508760Y723900D02*
X1555750Y770890D01*
X1508760Y712470D02*
Y723900D01*
X1352550Y759460D02*
Y790000D01*
X1305560Y712470D02*
X1352550Y759460D01*
X1377950D02*
Y790000D01*
X1330960Y712470D02*
X1377950Y759460D01*
X1381760Y593090D02*
Y636270D01*
X1282551Y553076D02*
X1306680D01*
X1342390Y553085D02*
X1357473D01*
X1356360Y573610D02*
Y636270D01*
X1330960Y574675D02*
Y636270D01*
Y574675D02*
X1333500Y572135D01*
X1305560Y573247D02*
Y636270D01*
Y573247D02*
X1306680Y572126D01*
X1407630Y609600D02*
Y635800D01*
X1434630Y609600D02*
X1442720D01*
X1484630Y567690D01*
X1407160Y712470D02*
Y723900D01*
X1428750Y768350D02*
Y790000D01*
Y768350D02*
X1454150Y742950D01*
X1428750D02*
X1457960Y713740D01*
Y712470D02*
Y713740D01*
X1454150Y742950D02*
X1483360Y713740D01*
Y712470D02*
Y713740D01*
X1403350Y727710D02*
X1407160Y723900D01*
X1403350Y727710D02*
Y742950D01*
Y768350D02*
Y790000D01*
Y768350D02*
X1428750Y742950D01*
X1645666Y737870D02*
X1657350Y749554D01*
Y790000D01*
X1432560Y703580D02*
Y712470D01*
Y699770D02*
Y703580D01*
X1300480Y687070D02*
X1419860D01*
X1432560Y699770D01*
Y703580D02*
X1447800Y688340D01*
X1231900Y689610D02*
X1254760Y712470D01*
X1231900Y575945D02*
Y689610D01*
X1432560Y636270D02*
Y646430D01*
X1682750Y692500D02*
Y801370D01*
X1432560Y646430D02*
X1449070Y662940D01*
X991000Y603650D02*
X998220Y610870D01*
Y636270D02*
Y671830D01*
Y610870D02*
X1014730D01*
X1301750Y790000D02*
Y802640D01*
X1158600Y485160D02*
Y551160D01*
X1060450Y687070D02*
Y734060D01*
X1026960Y717550D02*
X1040765D01*
X1041750Y660250D02*
X1060450Y687070D01*
X994330Y702310D02*
Y714000D01*
X989330Y726910D02*
X994330Y714000D01*
X978849Y701847D02*
X994330Y714000D01*
X1534160Y636270D02*
X1559430Y611000D01*
X1203960Y558780D02*
X1214000Y568820D01*
X1237000Y801240D02*
Y812070D01*
X1236000Y813070D02*
X1237000Y812070D01*
X1236000Y813070D02*
X1291320D01*
X1091000Y699840D02*
Y713760D01*
X1203600Y485160D02*
Y551160D01*
X1181000Y477000D02*
Y562000D01*
X1172000Y468000D02*
X1181000Y477000D01*
X1130250Y795240D02*
X1145760D01*
X1154000Y787000D01*
X1017750Y772830D02*
Y809500D01*
X982980Y736600D02*
X988060Y731520D01*
X982980Y736600D02*
Y786380D01*
X992600Y796000D01*
X1381760Y593090D02*
X1407350Y567500D01*
X1432370D01*
X1433830Y568960D01*
X1041750Y586500D02*
Y660250D01*
X1067235Y649755D02*
X1079000Y661520D01*
Y687840D01*
X1091000Y699840D01*
X1103500Y638450D02*
Y670750D01*
X1119250Y686500D01*
Y720500D01*
X1154000Y755250D01*
Y787000D01*
X1155000Y563290D02*
X1159510Y558780D01*
X1155000Y563290D02*
Y615950D01*
X1062250D02*
X1155000D01*
X1026960Y699300D02*
Y717550D01*
X1016800Y727710D02*
X1025000Y719510D01*
Y765580D01*
X1017750Y772830D02*
X1025000Y765580D01*
X1017750Y809500D02*
X1021320Y813070D01*
X1187500D01*
X1211000D02*
X1236000D01*
X1211000Y798500D02*
Y813070D01*
X1187500D02*
X1211000D01*
X1187500Y765500D02*
Y813070D01*
X1291320D02*
X1301750Y802640D01*
X1584960Y600040D02*
Y636270D01*
Y600040D02*
X1585000Y600000D01*
X1674820Y565920D02*
X1676400Y567500D01*
X1457960Y623570D02*
Y636270D01*
Y623570D02*
X1534030Y547500D01*
X1484630Y542290D02*
X1496920Y530000D01*
X1306680Y542439D02*
Y553076D01*
X1483360Y626640D02*
Y636270D01*
Y626640D02*
X1544080Y565920D01*
X1674820D01*
X1508760Y626240D02*
Y636270D01*
Y626240D02*
X1552040Y582960D01*
X1154470Y641350D02*
Y675000D01*
X1357473Y553085D02*
X1400558Y510000D01*
X1567500D01*
X1254760Y546100D02*
Y553085D01*
X1306680Y542439D02*
X1358660Y490460D01*
X1597960D01*
X1254760Y546100D02*
X1328360Y472500D01*
X1179000Y647801D02*
Y654000D01*
X1182500Y610000D02*
Y644301D01*
X1179000Y647801D02*
X1182500Y644301D01*
X977070Y687070D02*
X978849Y701847D01*
X1014730Y610870D02*
X1022500Y618640D01*
Y694840D01*
X1026960Y699300D01*
X1449070Y662940D02*
X1670440D01*
X1643380Y737870D02*
X1657500Y723750D01*
X1447800Y688340D02*
X1655840D01*
X1657500Y690000D01*
Y723750D01*
X1584990Y712500D02*
X1620000D01*
X1584960Y712470D02*
X1584990Y712500D01*
X1612900Y719600D02*
Y737870D01*
Y719600D02*
X1620000Y712500D01*
X1496920Y530000D02*
X1522500D01*
X1597960Y490460D02*
X1617500Y510000D01*
X1534030Y547500D02*
X1630000D01*
X1328360Y472500D02*
X1632500D01*
X1668750Y508750D01*
X1630000Y547500D02*
X1668750Y508750D01*
X1670440Y662940D02*
X1682500Y675000D01*
Y695000D01*
X1631950Y763050D02*
X1632500Y762500D01*
X1707500Y692900D02*
Y762500D01*
Y692900D02*
X1707900Y692500D01*
X1631950Y763050D02*
Y790000D01*
X991000Y570000D02*
Y603650D01*
Y570000D02*
X1093000Y468000D01*
X1172000D01*
X1301750Y802640D02*
X1312110Y813000D01*
X1671120D01*
X1682750Y801370D01*
X1105000Y506000D02*
X1107000Y504000D01*
X1105000Y506000D02*
Y592500D01*
X1102500Y595000D02*
X1105000Y592500D01*
X1637958Y582960D02*
X1637997Y582999D01*
X1552040Y582960D02*
X1637958D01*
X1091000Y744240D02*
X1114480D01*
X1132500Y762260D01*
X1042900Y789440D02*
X1057500Y774840D01*
Y757025D02*
Y774840D01*
D21*
X1290320Y737235D02*
X1292700Y734855D01*
X1390810Y755490D02*
Y810260D01*
Y755490D02*
X1403350Y742950D01*
X1292700Y694850D02*
Y734855D01*
Y694850D02*
X1300480Y687070D01*
X1444057Y525000D02*
X1459230Y540173D01*
Y542290D01*
X1356360Y572135D02*
X1363865D01*
X1411000Y525000D01*
X1444057D01*
D22*
X1407160Y636270D02*
X1407630Y635800D01*
X1394460Y598170D02*
X1405890Y586740D01*
X1440180D01*
X1459230Y567690D01*
X1394460Y598170D02*
Y656590D01*
X1305560Y636270D02*
Y655320D01*
X1330960Y636270D02*
Y650240D01*
X1337310Y656590D01*
X1361440D01*
X1369060Y648970D01*
X1305560Y655320D02*
X1316990Y666750D01*
X1384300D01*
X1394460Y656590D01*
X1280160Y712470D02*
Y718820D01*
X1558430Y610000D02*
X1559430Y611000D01*
X1369060Y587440D02*
Y648970D01*
X1204000Y661500D02*
Y684000D01*
D23*
X1268730Y730250D02*
X1280160Y718820D01*
X1214000Y612020D02*
Y681060D01*
Y568820D02*
Y612020D01*
X1147470Y722970D02*
Y725470D01*
X1194500Y646500D02*
Y682500D01*
X1166470Y722970D02*
X1191500Y748000D01*
X1209760D01*
X1043650Y795750D02*
X1056250D01*
X1113260Y776500D02*
X1126000Y763760D01*
X1104500Y776500D02*
X1113260D01*
X1104760Y795240D02*
X1130250D01*
X1104500Y795500D02*
X1104760Y795240D01*
X1056250Y795750D02*
X1066000Y786000D01*
X1083500D01*
X1369060Y587440D02*
X1414210Y542290D01*
X1433830D01*
X1194500Y646500D02*
X1203000Y638000D01*
X1181000Y562000D02*
X1203000Y584000D01*
Y638000D01*
X1147470Y725470D02*
X1187500Y765500D01*
X1154470Y675000D02*
Y681970D01*
X1156970Y684470D01*
Y701970D01*
X1204000Y684000D02*
Y690334D01*
X1243915Y730250D01*
X1268730D01*
D24*
X1216240Y724000D02*
X1240240Y748000D01*
Y767520D01*
X1237000Y770760D02*
X1240240Y767520D01*
X1211740Y770760D02*
X1237000D01*
X1211000Y771500D02*
X1211740Y770760D01*
X1179000Y654000D02*
Y696500D01*
X1206500Y724000D01*
X1216240D01*
D25*
X1735000Y790000D02*
D03*
X985000Y486000D02*
D03*
X1735000Y487000D02*
D03*
D26*
X1155000Y640200D02*
D03*
X992600Y796000D02*
D03*
X1018000D02*
D03*
X998220Y610870D02*
D03*
D27*
X1155000Y614800D02*
D03*
X998220Y636270D02*
D03*
D28*
X1254760D02*
D03*
X1280160D02*
D03*
X1305560D02*
D03*
X1330960D02*
D03*
X1356360D02*
D03*
X1381760D02*
D03*
X1407160D02*
D03*
X1432560D02*
D03*
X1457960D02*
D03*
X1483360D02*
D03*
X1508760D02*
D03*
X1534160D02*
D03*
X1559560D02*
D03*
X1584960D02*
D03*
X1254760Y712470D02*
D03*
X1280160D02*
D03*
X1305560D02*
D03*
X1330960D02*
D03*
X1356360D02*
D03*
X1381760D02*
D03*
X1407160D02*
D03*
X1432560D02*
D03*
X1457960D02*
D03*
X1483360D02*
D03*
X1508760D02*
D03*
X1534160D02*
D03*
X1559560D02*
D03*
D29*
X1584960D02*
D03*
D30*
X1682750Y790000D02*
D03*
D31*
X1657350D02*
D03*
X1631950D02*
D03*
X1606550D02*
D03*
X1581150D02*
D03*
X1555750D02*
D03*
X1530350D02*
D03*
X1504950D02*
D03*
X1479550D02*
D03*
X1454150D02*
D03*
X1428750D02*
D03*
X1403350D02*
D03*
X1377950D02*
D03*
X1352550D02*
D03*
X1327150D02*
D03*
X1301750D02*
D03*
D32*
X1403350Y742950D02*
D03*
X1433830Y542290D02*
D03*
D33*
X1428750Y742950D02*
D03*
X1454150D02*
D03*
X1484630Y567690D02*
D03*
Y542290D02*
D03*
X1459230Y567690D02*
D03*
Y542290D02*
D03*
X1433830Y567690D02*
D03*
D34*
X1043400Y796000D02*
D03*
D35*
X1203600Y485160D02*
D03*
X1158600D02*
D03*
X1203600Y551160D02*
D03*
X1158600D02*
D03*
D36*
X1055000Y505460D02*
D03*
X1105000D02*
D03*
X1667500Y510000D02*
D03*
X1617500D02*
D03*
X1567500D02*
D03*
D37*
X1657100Y692500D02*
D03*
D38*
X1682500D02*
D03*
X1707900D02*
D03*
D39*
X1300480Y687070D02*
D03*
X1558430Y610000D02*
D03*
X977070Y687070D02*
D03*
X1585000Y600000D02*
D03*
X1040000Y592500D02*
D03*
X1676400Y567500D02*
D03*
X1182500Y610000D02*
D03*
X1620000Y712500D02*
D03*
X1522500Y530000D02*
D03*
X1632500Y762500D02*
D03*
X1707500D02*
D03*
X1637997Y582999D02*
D03*
M02*
