M48
;Layer_Color=9474304
;FILE_FORMAT=4:4
METRIC,LZ
;TYPE=PLATED
T1F00S00C0.5000
T2F00S00C0.7000
T3F00S00C0.7620
T4F00S00C0.9000
T5F00S00C1.0000
T6F00S00C1.3005
T7F00S00C3.0000
%
T01
X01637997Y00582999
X016764Y005675
X0162Y007125
X016325Y007625
X017075
X01585Y006
X0155843Y0061
X015225Y0053
X0130048Y0068707
X011825Y0061
X0104Y005925
X0097707Y0068707
T02
X016571Y006925
X016825
X017079
T03
X0099822Y0061087
Y0063627
X01155Y006402
Y006148
T04
X0160655Y0079
X0163195
X0165735
X0168275
X0158115
X0155575
X0153035
X0150495
X0147955
X0145415
X0142875
X0140335
X0137795
X0135255
X0132715
X0130175
X0130556Y0071247
X0128016
X0125476
Y0063627
X0128016
X0130556
X0133096
X0135636
X0138176
X0140716
X0143256
X0145796
X0148336
X0150876
X0153416
X0155956
X0158496
Y0071247
X0155956
X0153416
X0150876
X0148336
X0145796
X0143256
X0140716
X0138176
X0135636
X0133096
X0140335Y0074295
X0142875
X0145415
X0145923Y0056769
X0148463
Y0054229
X0145923
X0143383
Y0056769
T05
X012036Y0048516
Y0055116
X011586
Y0048516
X010434Y00796
X01018
X009926
T06
X016175Y0051
X016675
X015675
X01105Y0050546
X01055
T07
X01735Y00487
Y0079
X00985Y00486
M30
