%FSLAX44Y44*%
%MOMM*%
G71*
G01*
G75*
G04 Layer_Physical_Order=2*
G04 Layer_Color=16711680*
%ADD10R,1.1000X1.7000*%
%ADD11R,1.7000X1.1000*%
%ADD12R,0.6000X1.3000*%
G04:AMPARAMS|DCode=13|XSize=1.25mm|YSize=1.84mm|CornerRadius=0.3125mm|HoleSize=0mm|Usage=FLASHONLY|Rotation=180.000|XOffset=0mm|YOffset=0mm|HoleType=Round|Shape=RoundedRectangle|*
%AMROUNDEDRECTD13*
21,1,1.2500,1.2150,0,0,180.0*
21,1,0.6250,1.8400,0,0,180.0*
1,1,0.6250,-0.3125,0.6075*
1,1,0.6250,0.3125,0.6075*
1,1,0.6250,0.3125,-0.6075*
1,1,0.6250,-0.3125,-0.6075*
%
%ADD13ROUNDEDRECTD13*%
G04:AMPARAMS|DCode=14|XSize=1.25mm|YSize=1.84mm|CornerRadius=0.3125mm|HoleSize=0mm|Usage=FLASHONLY|Rotation=90.000|XOffset=0mm|YOffset=0mm|HoleType=Round|Shape=RoundedRectangle|*
%AMROUNDEDRECTD14*
21,1,1.2500,1.2150,0,0,90.0*
21,1,0.6250,1.8400,0,0,90.0*
1,1,0.6250,0.6075,0.3125*
1,1,0.6250,0.6075,-0.3125*
1,1,0.6250,-0.6075,-0.3125*
1,1,0.6250,-0.6075,0.3125*
%
%ADD14ROUNDEDRECTD14*%
G04:AMPARAMS|DCode=15|XSize=1mm|YSize=1.4mm|CornerRadius=0.25mm|HoleSize=0mm|Usage=FLASHONLY|Rotation=270.000|XOffset=0mm|YOffset=0mm|HoleType=Round|Shape=RoundedRectangle|*
%AMROUNDEDRECTD15*
21,1,1.0000,0.9000,0,0,270.0*
21,1,0.5000,1.4000,0,0,270.0*
1,1,0.5000,-0.4500,-0.2500*
1,1,0.5000,-0.4500,0.2500*
1,1,0.5000,0.4500,0.2500*
1,1,0.5000,0.4500,-0.2500*
%
%ADD15ROUNDEDRECTD15*%
G04:AMPARAMS|DCode=16|XSize=1mm|YSize=1.4mm|CornerRadius=0.25mm|HoleSize=0mm|Usage=FLASHONLY|Rotation=180.000|XOffset=0mm|YOffset=0mm|HoleType=Round|Shape=RoundedRectangle|*
%AMROUNDEDRECTD16*
21,1,1.0000,0.9000,0,0,180.0*
21,1,0.5000,1.4000,0,0,180.0*
1,1,0.5000,-0.2500,0.4500*
1,1,0.5000,0.2500,0.4500*
1,1,0.5000,0.2500,-0.4500*
1,1,0.5000,-0.2500,-0.4500*
%
%ADD16ROUNDEDRECTD16*%
%ADD17R,2.3000X2.3000*%
G04:AMPARAMS|DCode=18|XSize=1.34mm|YSize=1.68mm|CornerRadius=0.335mm|HoleSize=0mm|Usage=FLASHONLY|Rotation=180.000|XOffset=0mm|YOffset=0mm|HoleType=Round|Shape=RoundedRectangle|*
%AMROUNDEDRECTD18*
21,1,1.3400,1.0100,0,0,180.0*
21,1,0.6700,1.6800,0,0,180.0*
1,1,0.6700,-0.3350,0.5050*
1,1,0.6700,0.3350,0.5050*
1,1,0.6700,0.3350,-0.5050*
1,1,0.6700,-0.3350,-0.5050*
%
%ADD18ROUNDEDRECTD18*%
%ADD19R,1.3000X0.6000*%
%ADD20C,0.9000*%
%ADD21C,0.5000*%
%ADD22C,0.4000*%
%ADD23C,0.6000*%
%ADD24C,0.8000*%
%ADD25C,1.5240*%
%ADD26C,1.6000*%
G04:AMPARAMS|DCode=27|XSize=1.6mm|YSize=1.6mm|CornerRadius=0.4mm|HoleSize=0mm|Usage=FLASHONLY|Rotation=90.000|XOffset=0mm|YOffset=0mm|HoleType=Round|Shape=RoundedRectangle|*
%AMROUNDEDRECTD27*
21,1,1.6000,0.8000,0,0,90.0*
21,1,0.8000,1.6000,0,0,90.0*
1,1,0.8000,0.4000,0.4000*
1,1,0.8000,0.4000,-0.4000*
1,1,0.8000,-0.4000,-0.4000*
1,1,0.8000,-0.4000,0.4000*
%
%ADD27ROUNDEDRECTD27*%
%ADD28O,1.5000X1.8000*%
%ADD29R,1.5000X1.8000*%
%ADD30R,1.5000X2.0000*%
%ADD31O,1.5000X2.0000*%
%ADD32R,1.5000X1.5000*%
%ADD33C,1.5000*%
%ADD34R,1.6000X1.6000*%
%ADD35C,1.8000*%
%ADD36C,2.5000*%
%ADD37R,1.2000X1.2000*%
%ADD38C,1.2000*%
%ADD39C,2.0000*%
%ADD40R,1.8000X2.4000*%
D20*
X977070Y687070D02*
X1300480D01*
X1040000Y592500D02*
X1577500D01*
X1585000Y600000D01*
X1676400Y567500D02*
Y568900D01*
X1620000Y712500D02*
X1622500Y710000D01*
X1620000Y605000D02*
Y710000D01*
X1522500Y530000D02*
X1545000D01*
X1620000Y605000D01*
X1617500Y510000D02*
X1676400Y568900D01*
X1632500Y762500D02*
X1707500D01*
X1567500Y510000D02*
X1570000D01*
X1635996Y585000D02*
X1637000Y583996D01*
X1570000Y510000D02*
X1637000Y577000D01*
Y583996D01*
D21*
X1381760Y636270D02*
Y661670D01*
X1432560Y712470D01*
D22*
X1182500Y610000D02*
X1558430D01*
D25*
X1735000Y790000D02*
D03*
X985000Y486000D02*
D03*
X1735000Y487000D02*
D03*
D26*
X1155000Y640200D02*
D03*
X992600Y796000D02*
D03*
X1018000D02*
D03*
X998220Y610870D02*
D03*
D27*
X1155000Y614800D02*
D03*
X998220Y636270D02*
D03*
D28*
X1254760D02*
D03*
X1280160D02*
D03*
X1305560D02*
D03*
X1330960D02*
D03*
X1356360D02*
D03*
X1381760D02*
D03*
X1407160D02*
D03*
X1432560D02*
D03*
X1457960D02*
D03*
X1483360D02*
D03*
X1508760D02*
D03*
X1534160D02*
D03*
X1559560D02*
D03*
X1584960D02*
D03*
X1254760Y712470D02*
D03*
X1280160D02*
D03*
X1305560D02*
D03*
X1330960D02*
D03*
X1356360D02*
D03*
X1381760D02*
D03*
X1407160D02*
D03*
X1432560D02*
D03*
X1457960D02*
D03*
X1483360D02*
D03*
X1508760D02*
D03*
X1534160D02*
D03*
X1559560D02*
D03*
D29*
X1584960D02*
D03*
D30*
X1682750Y790000D02*
D03*
D31*
X1657350D02*
D03*
X1631950D02*
D03*
X1606550D02*
D03*
X1581150D02*
D03*
X1555750D02*
D03*
X1530350D02*
D03*
X1504950D02*
D03*
X1479550D02*
D03*
X1454150D02*
D03*
X1428750D02*
D03*
X1403350D02*
D03*
X1377950D02*
D03*
X1352550D02*
D03*
X1327150D02*
D03*
X1301750D02*
D03*
D32*
X1403350Y742950D02*
D03*
X1433830Y542290D02*
D03*
D33*
X1428750Y742950D02*
D03*
X1454150D02*
D03*
X1484630Y567690D02*
D03*
Y542290D02*
D03*
X1459230Y567690D02*
D03*
Y542290D02*
D03*
X1433830Y567690D02*
D03*
D34*
X1043400Y796000D02*
D03*
D35*
X1203600Y485160D02*
D03*
X1158600D02*
D03*
X1203600Y551160D02*
D03*
X1158600D02*
D03*
D36*
X1055000Y505460D02*
D03*
X1105000D02*
D03*
X1667500Y510000D02*
D03*
X1617500D02*
D03*
X1567500D02*
D03*
D37*
X1657100Y692500D02*
D03*
D38*
X1682500D02*
D03*
X1707900D02*
D03*
D39*
X1300480Y687070D02*
D03*
X1558430Y610000D02*
D03*
X977070Y687070D02*
D03*
X1585000Y600000D02*
D03*
X1040000Y592500D02*
D03*
X1676400Y567500D02*
D03*
X1182500Y610000D02*
D03*
X1620000Y712500D02*
D03*
X1522500Y530000D02*
D03*
X1632500Y762500D02*
D03*
X1707500D02*
D03*
X1637997Y582999D02*
D03*
D40*
X1736000Y740000D02*
D03*
M02*
