M48
;Layer_Color=9474304
;FILE_FORMAT=2:5
INCH,LZ
;TYPE=PLATED
T1F00S00C0.02756
T2F00S00C0.03000
T3F00S00C0.03543
T4F00S00C0.11811
%
T01
X0447874Y0429528
X0457874
X0467874
T02
X0222953Y0267717
X0232953
X0295669Y0270354
Y0260354
X0438976Y0390945
T03
X0482087Y0279528
Y0289528
X0308544Y0400748
X0298544
X0288544
X0278544
X0268544
X0258544
X0248544
X0238544
Y0430748
X0248544
X0258544
X0268544
X0278544
X0288544
X0298544
X0308544
X0318544
X0328544
X0338544
X0348544
X0358544
X0368544
Y0400748
X0358544
X0348544
X0338544
X0328544
X0318544
X0318504Y0463386
X0328504
X0338504
X0348504
X0358504
X0368504
X0378504
X0388504
X0398504
X0408504
X0418504
X0428504
X0438504
X0448504
X0458504
X0468504
X0338583Y0327165
X0328583
X0318583
T04
X0492126Y0255906
X019685
Y0346457
Y0468504
X0492126
Y0346457
M30
